<svg width="78" height="78" viewBox="0 0 78 78" fill="none" xmlns="http://www.w3.org/2000/svg">
<circle cx="39" cy="39" r="39" fill="white"/>
<path d="M59.5359 20.3727H21.8459C19.7219 20.3727 18 22.1177 18 24.2703V56.6205C18 58.7731 19.7219 60.5181 21.8459 60.5181H59.5359C61.6599 60.5181 63.3818 58.7731 63.3818 56.6205V24.2703C63.3818 22.1177 61.6599 20.3727 59.5359 20.3727Z" fill="url(#paint0_linear_147_80)" stroke="#2369D6" stroke-width="2" stroke-linecap="round" stroke-linejoin="round"/>
<path d="M18.845 31.9119H63.2195" stroke="#2369D6" stroke-width="2" stroke-linecap="round" stroke-linejoin="round"/>
<path d="M55.0909 17.3181L55.0909 22.9909" stroke="#3D3D3D" stroke-width="2" stroke-linecap="round" stroke-linejoin="round"/>
<path d="M25.8545 17.3181L25.8545 22.9909" stroke="#3D3D3D" stroke-width="2" stroke-linecap="round" stroke-linejoin="round"/>
<path d="M24.4753 40.7713C26.0564 40.7713 27.3382 39.4918 27.3382 37.9135C27.3382 36.3351 26.0564 35.0556 24.4753 35.0556C22.8942 35.0556 21.6125 36.3351 21.6125 37.9135C21.6125 39.4918 22.8942 40.7713 24.4753 40.7713Z" fill="#FFC35F"/>
<path d="M24.5708 48.8685C26.1519 48.8685 27.4336 47.589 27.4336 46.0107C27.4336 44.4323 26.1519 43.1528 24.5708 43.1528C22.9896 43.1528 21.7079 44.4323 21.7079 46.0107C21.7079 47.589 22.9896 48.8685 24.5708 48.8685Z" fill="#FFC35F"/>
<path d="M32.5868 48.8685C34.1679 48.8685 35.4497 47.589 35.4497 46.0107C35.4497 44.4323 34.1679 43.1528 32.5868 43.1528C31.0057 43.1528 29.7239 44.4323 29.7239 46.0107C29.7239 47.589 31.0057 48.8685 32.5868 48.8685Z" fill="#FFC35F"/>
<path d="M40.6028 48.8685C42.184 48.8685 43.4657 47.589 43.4657 46.0107C43.4657 44.4323 42.184 43.1528 40.6028 43.1528C39.0217 43.1528 37.74 44.4323 37.74 46.0107C37.74 47.589 39.0217 48.8685 40.6028 48.8685Z" fill="#FFC35F"/>
<path d="M48.6189 48.8685C50.2 48.8685 51.4818 47.589 51.4818 46.0107C51.4818 44.4323 50.2 43.1528 48.6189 43.1528C47.0378 43.1528 45.756 44.4323 45.756 46.0107C45.756 47.589 47.0378 48.8685 48.6189 48.8685Z" fill="#FFC35F"/>
<path d="M56.6349 48.8685C58.216 48.8685 59.4978 47.589 59.4978 46.0107C59.4978 44.4323 58.216 43.1528 56.6349 43.1528C55.0538 43.1528 53.772 44.4323 53.772 46.0107C53.772 47.589 55.0538 48.8685 56.6349 48.8685Z" fill="#FFA913"/>
<path d="M24.6662 56.9658C26.2473 56.9658 27.5291 55.6863 27.5291 54.1079C27.5291 52.5296 26.2473 51.2501 24.6662 51.2501C23.0851 51.2501 21.8033 52.5296 21.8033 54.1079C21.8033 55.6863 23.0851 56.9658 24.6662 56.9658Z" fill="#FFC35F"/>
<path d="M32.7776 57.0611C34.3588 57.0611 35.6405 55.7816 35.6405 54.2033C35.6405 52.6249 34.3588 51.3454 32.7776 51.3454C31.1965 51.3454 29.9148 52.6249 29.9148 54.2033C29.9148 55.7816 31.1965 57.0611 32.7776 57.0611Z" fill="#FFC35F"/>
<path d="M40.8891 57.1564C42.4702 57.1564 43.752 55.8769 43.752 54.2985C43.752 52.7202 42.4702 51.4407 40.8891 51.4407C39.308 51.4407 38.0262 52.7202 38.0262 54.2985C38.0262 55.8769 39.308 57.1564 40.8891 57.1564Z" fill="#FFC35F"/>
<path d="M49.0006 57.2516C50.5817 57.2516 51.8635 55.9721 51.8635 54.3938C51.8635 52.8154 50.5817 51.5359 49.0006 51.5359C47.4195 51.5359 46.1377 52.8154 46.1377 54.3938C46.1377 55.9721 47.4195 57.2516 49.0006 57.2516Z" fill="#FFA913"/>
<path d="M57.1121 57.3469C58.6932 57.3469 59.9749 56.0674 59.9749 54.489C59.9749 52.9107 58.6932 51.6312 57.1121 51.6312C55.5309 51.6312 54.2492 52.9107 54.2492 54.489C54.2492 56.0674 55.5309 57.3469 57.1121 57.3469Z" fill="#FFA913"/>
<path d="M32.5868 40.8666C34.1679 40.8666 35.4497 39.5871 35.4497 38.0087C35.4497 36.4304 34.1679 35.1508 32.5868 35.1508C31.0057 35.1508 29.7239 36.4304 29.7239 38.0087C29.7239 39.5871 31.0057 40.8666 32.5868 40.8666Z" fill="#FFC35F"/>
<path d="M40.6983 40.9618C42.2794 40.9618 43.5611 39.6823 43.5611 38.104C43.5611 36.5256 42.2794 35.2461 40.6983 35.2461C39.1171 35.2461 37.8354 36.5256 37.8354 38.104C37.8354 39.6823 39.1171 40.9618 40.6983 40.9618Z" fill="#FFC35F"/>
<path d="M48.6189 41.0571C50.2 41.0571 51.4818 39.7775 51.4818 38.1992C51.4818 36.6208 50.2 35.3413 48.6189 35.3413C47.0378 35.3413 45.756 36.6208 45.756 38.1992C45.756 39.7775 47.0378 41.0571 48.6189 41.0571Z" fill="#FFC35F"/>
<path d="M56.5395 41.1524C58.1206 41.1524 59.4023 39.8729 59.4023 38.2945C59.4023 36.7162 58.1206 35.4366 56.5395 35.4366C54.9584 35.4366 53.6766 36.7162 53.6766 38.2945C53.6766 39.8729 54.9584 41.1524 56.5395 41.1524Z" fill="#FFC35F"/>
<path d="M56.6182 62.2636C61.7996 62.2636 66 58.1609 66 53.1C66 48.0391 61.7996 43.9364 56.6182 43.9364C51.4367 43.9364 47.2364 48.0391 47.2364 53.1C47.2364 58.1609 51.4367 62.2636 56.6182 62.2636Z" fill="#F2F2F2" stroke="#3D3D3D" stroke-width="2" stroke-linecap="round" stroke-linejoin="round"/>
<path d="M56.444 46.4163V54.0373H61.0246" fill="#F2F2F2"/>
<path d="M56.444 46.4163V54.0373H61.0246" stroke="#2369D6" stroke-linecap="round" stroke-linejoin="round"/>
<path d="M56.6182 54.8455C57.2207 54.8455 57.7091 54.357 57.7091 53.7545C57.7091 53.1521 57.2207 52.6636 56.6182 52.6636C56.0157 52.6636 55.5273 53.1521 55.5273 53.7545C55.5273 54.357 56.0157 54.8455 56.6182 54.8455Z" fill="#3D3D3D"/>
<defs>
<linearGradient id="paint0_linear_147_80" x1="40.6909" y1="20.3727" x2="40.6909" y2="60.5181" gradientUnits="userSpaceOnUse">
<stop offset="0.532497" stop-color="#B8DAFF"/>
<stop offset="1" stop-color="#B8DAFF" stop-opacity="0"/>
</linearGradient>
</defs>
</svg>
