<svg width="78" height="78" viewBox="0 0 78 78" fill="none" xmlns="http://www.w3.org/2000/svg">
<circle cx="39" cy="39" r="39" fill="white"/>
<mask id="path-2-inside-1_144_63" fill="white">
<path d="M37.5903 15.3795C36.0025 17.1766 31.0786 21.4967 19.5673 22.8546C19.2484 22.8923 18.9514 23.0365 18.7238 23.264C18.4961 23.4915 18.3511 23.7892 18.3118 24.1094C17.6428 29.6193 16.1086 53.7541 37.9359 65.9145C38.0221 65.9622 38.1175 65.9907 38.2156 65.9981C38.3138 66.0054 38.4123 65.9914 38.5046 65.9571C41.3724 64.8726 63.9579 55.2285 59.6027 22.1219C59.5639 21.8357 59.4232 21.5735 59.2067 21.3835C58.9903 21.1936 58.7126 21.0889 58.4253 21.0889C55.5262 21.0889 46.9362 20.5623 39.0732 15.198C38.8462 15.0424 38.5706 14.975 38.2977 15.0084C38.0249 15.0417 37.7735 15.1737 37.5903 15.3795Z"/>
</mask>
<path d="M37.5903 15.3795C36.0025 17.1766 31.0786 21.4967 19.5673 22.8546C19.2484 22.8923 18.9514 23.0365 18.7238 23.264C18.4961 23.4915 18.3511 23.7892 18.3118 24.1094C17.6428 29.6193 16.1086 53.7541 37.9359 65.9145C38.0221 65.9622 38.1175 65.9907 38.2156 65.9981C38.3138 66.0054 38.4123 65.9914 38.5046 65.9571C41.3724 64.8726 63.9579 55.2285 59.6027 22.1219C59.5639 21.8357 59.4232 21.5735 59.2067 21.3835C58.9903 21.1936 58.7126 21.0889 58.4253 21.0889C55.5262 21.0889 46.9362 20.5623 39.0732 15.198C38.8462 15.0424 38.5706 14.975 38.2977 15.0084C38.0249 15.0417 37.7735 15.1737 37.5903 15.3795Z" fill="url(#paint0_linear_144_63)" stroke="#2369D6" stroke-width="4" mask="url(#path-2-inside-1_144_63)"/>
<path d="M32.8989 40.5001L38.3067 47.0027L48.5648 33.1102" stroke="#FFC35F" stroke-width="3" stroke-linecap="round" stroke-linejoin="round"/>
<defs>
<linearGradient id="paint0_linear_144_63" x1="39.0792" y1="15" x2="39.0792" y2="66" gradientUnits="userSpaceOnUse">
<stop offset="0.539216" stop-color="#B8DAFF"/>
<stop offset="1" stop-color="#B8DAFF" stop-opacity="0"/>
</linearGradient>
</defs>
</svg>
