<svg width="78" height="78" viewBox="0 0 78 78" fill="none" xmlns="http://www.w3.org/2000/svg">
<circle cx="39" cy="39" r="39" fill="white"/>
<g filter="url(#filter0_b_142_44)">
<path d="M47.1419 32.4754H50.3586C55.2793 32.4754 59.4687 36.0552 60.2362 40.9156L61.6969 50.1662C62.6554 56.2359 57.9642 61.726 51.8193 61.726H25.703C19.5581 61.726 14.8669 56.2359 15.8254 50.1662L17.2861 40.9156C18.0536 36.0552 22.243 32.4754 27.1637 32.4754H33" fill="url(#paint0_linear_142_44)"/>
<path d="M47.1419 32.4754H50.3586C55.2793 32.4754 59.4687 36.0552 60.2362 40.9156L61.6969 50.1662C62.6554 56.2359 57.9642 61.726 51.8193 61.726H25.703C19.5581 61.726 14.8669 56.2359 15.8254 50.1662L17.2861 40.9156C18.0536 36.0552 22.243 32.4754 27.1637 32.4754H33" stroke="#2369D6" stroke-width="2" stroke-linecap="round" stroke-linejoin="round"/>
</g>
<path d="M18 47.3868C20.6745 46.6453 24.0367 46.2088 27.3107 47.1403C34.4241 49.161 38.8348 55.425 46.8544 51.9899C54.3045 48.7973 53.5708 43.7173 59 43" stroke="#3D3D3D" stroke-width="2" stroke-linecap="round" stroke-linejoin="round" stroke-dasharray="5 5"/>
<path d="M27.5 22.0373C27.5 17.0462 33.4783 13 39.0009 13C44.5234 13 50.5 17.0462 50.5 22.0373C50.5 27.0284 44.2747 48 38.7522 48C33.2296 48 27.5 27.0284 27.5 22.0373Z" fill="#FFC35F"/>
<path d="M39 29C41.7614 29 44 26.7614 44 24C44 21.2386 41.7614 19 39 19C36.2386 19 34 21.2386 34 24C34 26.7614 36.2386 29 39 29Z" fill="white"/>
<defs>
<filter id="filter0_b_142_44" x="10.7005" y="27.4754" width="56.1213" height="39.2506" filterUnits="userSpaceOnUse" color-interpolation-filters="sRGB">
<feFlood flood-opacity="0" result="BackgroundImageFix"/>
<feGaussianBlur in="BackgroundImage" stdDeviation="2"/>
<feComposite in2="SourceAlpha" operator="in" result="effect1_backgroundBlur_142_44"/>
<feBlend mode="normal" in="SourceGraphic" in2="effect1_backgroundBlur_142_44" result="shape"/>
</filter>
<linearGradient id="paint0_linear_142_44" x1="38.7612" y1="32.4754" x2="38.7612" y2="61.726" gradientUnits="userSpaceOnUse">
<stop offset="0.43673" stop-color="#B8DAFF"/>
<stop offset="1" stop-color="#B8DAFF" stop-opacity="0"/>
</linearGradient>
</defs>
</svg>
