<svg width="123" height="123" viewBox="0 0 123 123" fill="none" xmlns="http://www.w3.org/2000/svg">
<circle cx="61.5" cy="61.5" r="61.5" fill="white"/>
<path d="M84.8875 27.7139H42.6099C40.891 27.7139 39.4975 29.108 39.4975 30.8279V93.8861C39.4975 95.6059 40.891 97 42.6099 97H84.8875C86.6065 97 88 95.6059 88 93.8861V30.8279C88 29.108 86.6065 27.7139 84.8875 27.7139Z" fill="#2369D9" stroke="#2369D9" stroke-width="2" stroke-linecap="round" stroke-linejoin="round"/>
<path d="M62.3222 51.5878H82.1227" stroke="#2369D9" stroke-width="2" stroke-linecap="round" stroke-linejoin="round"/>
<path d="M64.2097 48.5494C68.4911 48.5494 71.9618 45.0786 71.9618 40.7973C71.9618 36.5159 68.4911 33.0452 64.2097 33.0452C59.9284 33.0452 56.4576 36.5159 56.4576 40.7973C56.4576 45.0786 59.9284 48.5494 64.2097 48.5494Z" fill="#FFC35F"/>
<path d="M46.7599 59.3727H82.2938" stroke="#FFC35F" stroke-width="2" stroke-linecap="round" stroke-linejoin="round"/>
<path d="M46.7599 66.1196H82.2938" stroke="#FFC35F" stroke-width="2" stroke-linecap="round" stroke-linejoin="round"/>
<path d="M46.7599 72.8666H82.2938" stroke="#FFC35F" stroke-width="2" stroke-linecap="round" stroke-linejoin="round"/>
<path d="M46.7599 79.6136H82.2938" stroke="#FFC35F" stroke-width="2" stroke-linecap="round" stroke-linejoin="round"/>
<path d="M46.7599 87.9177H58.9504" stroke="#FFC35F" stroke-width="2" stroke-linecap="round" stroke-linejoin="round"/>
<path d="M73.7345 87.9177H80.2188" stroke="#FFC35F" stroke-width="2" stroke-linecap="round" stroke-linejoin="round"/>
</svg>
