<svg width="123" height="123" viewBox="0 0 123 123" fill="none" xmlns="http://www.w3.org/2000/svg">
<circle cx="61.5" cy="61.5" r="61.5" fill="white"/>
<path d="M82.4808 65.5245L53.7627 94.2401C52.5865 95.4109 50.9945 96.0683 49.3349 96.0683C47.6753 96.0683 46.0832 95.4109 44.907 94.2401L30.6975 80.0331C29.6102 78.9381 29 77.4575 29 75.9144C29 74.3712 29.6102 72.8907 30.6975 71.7957L59.7273 42.7684" fill="#2369D9"/>
<path d="M82.4808 65.5245L53.7627 94.2401C52.5865 95.4109 50.9945 96.0683 49.3349 96.0683C47.6753 96.0683 46.0832 95.4109 44.907 94.2401L30.6975 80.0331C29.6102 78.9381 29 77.4575 29 75.9144C29 74.3712 29.6102 72.8907 30.6975 71.7957L59.7273 42.7684" stroke="#2369D6" stroke-width="2" stroke-linejoin="round"/>
<path d="M59.7272 42.7686L88.9243 35.8184L82.4808 65.5247" fill="#2369D9"/>
<path d="M59.7272 42.7686L88.9243 35.8184L82.4808 65.5247" stroke="#2369D6" stroke-width="2" stroke-linecap="round" stroke-linejoin="round"/>
<path d="M78.2823 50.5143C80.5213 50.5143 82.3364 48.6992 82.3364 46.4602C82.3364 44.2212 80.5213 42.4061 78.2823 42.4061C76.0433 42.4061 74.2282 44.2212 74.2282 46.4602C74.2282 48.6992 76.0433 50.5143 78.2823 50.5143Z" fill="white" stroke="#2369D6" stroke-width="2" stroke-linecap="round" stroke-linejoin="round"/>
<path d="M91.1403 49.6485C93.1044 49.8206 95.0795 49.4623 96.8442 48.6135C98.6089 47.7648 100.094 46.4593 101.132 44.8431C104.656 39.4399 109.204 29.999 100.192 27.1026C87.3038 22.9653 76.128 31.8038 76.128 31.8038C76.128 31.8038 60.9724 41.2062 78.0216 46.6615" stroke="#FFC35F" stroke-linecap="round" stroke-linejoin="round"/>
<path d="M41.9025 75.5188C42.5551 74.8562 43.2304 74.3915 43.9285 74.1246C44.6335 73.8505 45.3189 73.7817 45.9847 73.9181C46.6504 74.0545 47.2611 74.3964 47.8168 74.9437C48.3654 75.4841 48.7164 76.0896 48.87 76.7602C49.0164 77.4238 48.958 78.1101 48.6946 78.8192C48.4312 79.5142 47.9731 80.193 47.3205 80.8555L45.8363 82.3623L47.8988 84.3939L46.1936 86.1251L38.7131 78.7568L41.9025 75.5188ZM45.8152 79.5623C46.3274 79.0422 46.6065 78.538 46.6523 78.0497C46.691 77.5545 46.5037 77.1033 46.0905 76.6963C45.6702 76.2823 45.2162 76.1019 44.7287 76.155C44.2341 76.2012 43.7306 76.4843 43.2184 77.0044L41.8289 78.415L44.4257 80.9729L45.8152 79.5623ZM50.2624 72.012C50.181 71.5388 50.234 71.0647 50.4214 70.5895C50.6157 70.1072 50.9304 69.6452 51.3655 69.2034L52.9044 70.7192C52.7077 70.8904 52.5777 71.0081 52.5146 71.0722C52.0444 71.5495 51.8114 72.0569 51.8154 72.5943C51.8123 73.1246 52.078 73.653 52.6123 74.1793L55.3267 76.8529L53.6846 78.52L47.9353 72.8569L49.5037 71.2646L50.2624 72.012ZM52.4274 68.2964L54.0695 66.6293L59.8188 72.2924L58.1767 73.9595L52.4274 68.2964ZM52.447 66.6734C52.1452 66.9797 51.8105 67.1414 51.443 67.1583C51.0754 67.1752 50.7598 67.0539 50.4962 66.7942C50.2326 66.5346 50.1065 66.2208 50.1178 65.8531C50.1292 65.4853 50.2858 65.1482 50.5875 64.8418C50.8893 64.5355 51.2204 64.3704 51.5808 64.3464C51.9413 64.3225 52.2497 64.4368 52.5062 64.6895C52.7841 64.9631 52.9209 65.2874 52.9166 65.6622C52.9053 66.03 52.7487 66.3671 52.447 66.6734ZM64.1651 68.0509C63.5616 68.6636 62.893 69.093 62.1595 69.3389C61.4258 69.5707 60.6977 69.6045 59.9752 69.4403C59.2597 69.2689 58.617 68.9025 58.0471 68.3411C57.4771 67.7797 57.1011 67.1426 56.9189 66.4298C56.7438 65.7098 56.7701 64.9848 56.9979 64.2548C57.2257 63.5106 57.6413 62.8321 58.2448 62.2194C58.8413 61.6139 59.4888 61.213 60.1874 61.0168C60.8858 60.8064 61.5719 60.8295 62.2456 61.0861L61.6666 63.0634C60.8446 62.8433 60.1565 63.0147 59.6021 63.5775C59.1741 64.0121 58.9622 64.5122 58.9664 65.0779C58.9707 65.6435 59.2186 66.1685 59.7102 66.6527C60.2018 67.1369 60.7304 67.3768 61.2961 67.3726C61.8617 67.3683 62.3586 67.1489 62.7867 66.7143C63.3481 66.1443 63.509 65.4537 63.2695 64.6423L65.2485 64.0439C65.501 64.6997 65.5309 65.3818 65.3382 66.0904C65.1526 66.7919 64.7615 67.4454 64.1651 68.0509ZM70.1839 56.0623C70.2053 56.0833 70.3443 56.2414 70.6011 56.5364L66.317 60.8858C66.7504 61.1583 67.2143 61.2503 67.7086 61.1617C68.2029 61.0731 68.6641 60.8115 69.0922 60.3769C69.3869 60.0777 69.6038 59.772 69.7429 59.4598C69.8818 59.1335 69.9534 58.7758 69.9575 58.3869L71.7929 58.4473C71.8794 59.5992 71.4104 60.6953 70.3859 61.7354C69.7473 62.3837 69.0577 62.8344 68.3171 63.0875C67.5694 63.3336 66.8378 63.3709 66.1223 63.1996C65.4068 63.0282 64.7641 62.6618 64.1942 62.1004C63.6314 61.546 63.2554 60.916 63.0662 60.2103C62.8769 59.4905 62.8856 58.7762 63.0924 58.0675C63.2991 57.3447 63.6866 56.6947 64.2551 56.1177C64.8094 55.5548 65.4323 55.1647 66.1236 54.9474C66.815 54.73 67.5149 54.7177 68.2235 54.9103C68.932 55.0888 69.5855 55.4728 70.1839 56.0623ZM65.5266 57.3491C65.1547 57.7266 64.9492 58.1489 64.9103 58.6159C64.8714 59.0829 65.0092 59.5274 65.3235 59.9493L68.1129 57.1174C67.6934 56.8165 67.2505 56.689 66.7842 56.735C66.3107 56.7739 65.8915 56.9786 65.5266 57.3491Z" fill="#FFC35F"/>
</svg>
