<svg width="123" height="123" viewBox="0 0 123 123" fill="none" xmlns="http://www.w3.org/2000/svg">
<circle cx="61.5" cy="61.5" r="61.5" fill="white"/>
<path d="M40.6231 31.1504V60.8855C40.6231 60.8855 39.1378 61.5216 39.1378 62.3698V70.3957C39.1378 70.3957 38.5012 70.6395 38.5012 71.2757V80.4657C38.5012 80.4657 38.5012 81.2418 39.1378 81.4538V94.1765C39.1378 94.1765 39.1378 95.4488 40.4109 95.6608V96.4051C40.4074 96.7346 40.48 97.0604 40.6231 97.3572C40.7823 97.6753 41.0475 97.9933 41.4719 97.9933H45.5036C45.6405 97.9876 45.7746 97.9527 45.8968 97.8909C46.0191 97.8291 46.1267 97.7418 46.2123 97.635C46.2634 97.5709 46.3369 97.5285 46.418 97.5163C46.4991 97.5041 46.5818 97.523 46.6495 97.5692C46.9253 97.7537 47.3497 97.9933 47.6977 97.9933H50.5835C50.8913 97.9979 51.1966 97.9385 51.4801 97.8187C51.7636 97.699 52.019 97.5216 52.2302 97.2978C52.3894 97.1451 52.4887 96.9405 52.5103 96.7211V95.7329H73.5175C73.5175 95.7329 73.3223 97.5332 74.5276 97.9318C74.669 97.9756 74.8166 97.9964 74.9647 97.9933H78.2749C78.5594 97.9966 78.8402 97.9288 79.0919 97.7961C79.21 97.7385 79.3132 97.6543 79.3932 97.5501C79.4061 97.5346 79.4224 97.522 79.4407 97.5134C79.459 97.5048 79.479 97.5004 79.4993 97.5004C79.5195 97.5004 79.5396 97.5048 79.5579 97.5134C79.5762 97.522 79.5924 97.5346 79.6054 97.5501C79.7147 97.6836 79.851 97.7927 80.0053 97.8701C80.1595 97.9476 80.3284 97.9917 80.5008 97.9997H83.9872C84.4609 98.0088 84.9189 97.8296 85.2604 97.5014C85.3683 97.4025 85.4554 97.2832 85.5166 97.1503C85.5778 97.0174 85.6119 96.8736 85.6169 96.7274V95.6842C85.6169 95.6842 86.89 95.2431 86.89 94.3949V81.3626C86.89 81.3626 87.5266 80.8219 87.5266 80.3978V71.3414C87.5266 71.3414 87.5266 70.4275 86.89 70.2154V62.3698C86.89 62.3698 86.6778 61.0975 85.4047 61.0975V31.2925C85.411 30.6775 85.3097 30.0661 85.1055 29.4859C84.9145 28.9558 84.6089 28.4256 84.1315 28.2306C84.1315 28.2306 74.7949 25.5948 62.912 25.5948C52.6121 25.5948 45.1853 27.4142 42.6878 28.0376C42.2294 28.153 41.8105 28.3892 41.4746 28.7215C41.1386 29.0538 40.8981 29.4701 40.778 29.9269C40.7589 30.0033 40.7398 30.0838 40.7229 30.1665C40.6567 30.4903 40.6233 30.8199 40.6231 31.1504V31.1504Z" fill="#2369D9"/>
<path d="M42.8512 43.3918L43.4496 60.2493C44.0224 60.7287 44.7458 60.9915 45.493 60.9915H80.4796C81.2948 60.991 82.0886 60.731 82.7459 60.2493V60.2493L83.6138 43.3918C83.6138 43.3918 62.5853 41.2713 42.8512 43.3918Z" fill="white"/>
<path d="M42.8512 85.0481L47.9439 86.2249C47.9439 86.2249 49.217 86.437 49.4292 88.3454C49.4292 88.3454 49.8091 90.2538 48.2303 90.4467C48.0739 90.4658 47.9157 90.4658 47.7593 90.4467L42.0024 89.8297C41.7511 89.814 41.5066 89.7415 41.2873 89.6176C40.9854 89.4501 40.7345 89.2038 40.5615 88.9051C40.3885 88.6064 40.2998 88.2664 40.3049 87.9213V87.1961C40.3012 86.6642 40.4373 86.1407 40.6995 85.6778C40.9542 85.241 41.1239 85.1986 41.3892 85.135C41.7479 85.0423 42.118 85.0009 42.4883 85.012C42.6101 85.0133 42.7315 85.0254 42.8512 85.0481V85.0481Z" fill="#FFC35F"/>
<path d="M83.1682 85.048L78.0755 86.2249C78.0755 86.2249 76.8023 86.4369 76.5901 88.3453C76.5901 88.3453 76.2103 90.2537 77.789 90.4467C77.9455 90.4658 78.1037 90.4658 78.2601 90.4467L84.0169 89.8318C84.2683 89.8161 84.5128 89.7436 84.732 89.6197C85.034 89.4522 85.2848 89.2059 85.4578 88.9072C85.6309 88.6085 85.7196 88.2685 85.7145 87.9233V87.1982C85.7182 86.6663 85.5821 86.1427 85.3198 85.6799C85.0652 85.2431 84.8954 85.2007 84.6302 85.1371C84.2715 85.0444 83.9014 85.003 83.531 85.0141C83.4093 85.0147 83.2879 85.026 83.1682 85.048Z" fill="#FFC35F"/>
<path d="M41.578 93.4344C42.164 93.4344 42.639 92.9597 42.639 92.3742C42.639 91.7886 42.164 91.314 41.578 91.314C40.9921 91.314 40.5171 91.7886 40.5171 92.3742C40.5171 92.9597 40.9921 93.4344 41.578 93.4344Z" fill="#FFC35F"/>
<path d="M84.4413 93.4344C85.0273 93.4344 85.5023 92.9597 85.5023 92.3742C85.5023 91.7886 85.0273 91.314 84.4413 91.314C83.8554 91.314 83.3804 91.7886 83.3804 92.3742C83.3804 92.9597 83.8554 93.4344 84.4413 93.4344Z" fill="#FFC35F"/>
<path d="M38.1829 44.876H35.8488C35.38 44.876 35 45.2557 35 45.7242V58.8709C35 59.3394 35.38 59.7191 35.8488 59.7191H38.1829C38.6517 59.7191 39.0317 59.3394 39.0317 58.8709V45.7242C39.0317 45.2557 38.6517 44.876 38.1829 44.876Z" fill="#2369D9"/>
<path d="M89.9584 44.876H87.6242C87.1555 44.876 86.7755 45.2557 86.7755 45.7242V58.8709C86.7755 59.3394 87.1555 59.7191 87.6242 59.7191H89.9584C90.4271 59.7191 90.8071 59.3394 90.8071 58.8709V45.7242C90.8071 45.2557 90.4271 44.876 89.9584 44.876Z" fill="#2369D9"/>
<path d="M48.156 69.7002C48.156 69.67 48.162 69.64 48.1737 69.6121C48.1853 69.5842 48.2024 69.5588 48.2239 69.5375C48.2454 69.5162 48.2709 69.4994 48.299 69.488C48.327 69.4766 48.3571 69.4709 48.3873 69.4712H77.6702C77.7202 69.4712 77.7683 69.4911 77.8037 69.5265C77.8391 69.5619 77.859 69.6099 77.859 69.6599V70.1773C77.8585 70.3438 77.8075 70.5062 77.7128 70.6432C77.6181 70.7803 77.4841 70.8854 77.3285 70.9449L76.1508 71.3966C75.0677 71.8146 73.9169 72.0302 72.7557 72.0327H52.9262C52.0092 72.0328 51.0997 71.8668 50.2419 71.5429L48.8902 71.0318C48.6746 70.9505 48.4889 70.8055 48.3578 70.6161C48.2266 70.4267 48.1563 70.2019 48.156 69.9716V69.7002Z" fill="white"/>
<path d="M48.8987 74.1531C48.897 74.0947 48.9183 74.038 48.9579 73.9952C48.9976 73.9524 49.0526 73.9268 49.1109 73.9241H76.9423C76.9909 73.9257 77.0369 73.9465 77.0703 73.9818C77.1037 74.0172 77.1217 74.0642 77.1206 74.1128V74.6302C77.1218 74.7937 77.0744 74.9539 76.9845 75.0905C76.8947 75.2271 76.7662 75.3341 76.6156 75.3978L75.4909 75.8516C74.4667 76.2687 73.3716 76.4847 72.2656 76.4877H53.4312C52.559 76.4871 51.6949 76.3209 50.8849 75.9979L49.6117 75.4868C49.4027 75.4 49.2244 75.2526 49.1 75.0637C48.9756 74.8747 48.9106 74.6528 48.9136 74.4266L48.8987 74.1531Z" fill="white"/>
<path d="M49.5353 78.606C49.533 78.5767 49.5367 78.5473 49.5464 78.5196C49.556 78.4919 49.5712 78.4665 49.5912 78.4449C49.6111 78.4234 49.6353 78.4063 49.6622 78.3946C49.6891 78.3829 49.7182 78.3769 49.7475 78.377H76.3122C76.3359 78.378 76.3591 78.3838 76.3806 78.3939C76.4021 78.4039 76.4213 78.4182 76.4373 78.4357C76.4533 78.4532 76.4656 78.4737 76.4736 78.496C76.4817 78.5183 76.4852 78.542 76.4841 78.5657V79.0831C76.487 79.2439 76.443 79.4021 76.3574 79.5384C76.2719 79.6747 76.1485 79.7832 76.0024 79.8507L74.9266 80.3023C73.9525 80.7185 72.9048 80.9348 71.8455 80.9385H53.862C53.0262 80.938 52.1989 80.7715 51.4281 80.4486L50.2016 79.9376C49.9989 79.8455 49.8277 79.6959 49.7092 79.5074C49.5908 79.319 49.5303 79.0999 49.5353 78.8774V78.606Z" fill="white"/>
<path d="M50.1719 83.0591C50.1696 83.0309 50.1729 83.0025 50.1818 82.9756C50.1906 82.9488 50.2047 82.9239 50.2233 82.9026C50.2419 82.8812 50.2646 82.8638 50.29 82.8514C50.3154 82.8389 50.3431 82.8317 50.3713 82.8301H75.684C75.7072 82.8317 75.7298 82.8379 75.7505 82.8482C75.7713 82.8586 75.7898 82.873 75.805 82.8905C75.8202 82.908 75.8317 82.9284 75.839 82.9504C75.8463 82.9724 75.8491 82.9957 75.8474 83.0188V83.5362C75.8516 83.6944 75.8108 83.8505 75.7296 83.9864C75.6485 84.1223 75.5304 84.2323 75.3891 84.3038L74.3621 84.7554C73.4393 85.1708 72.4394 85.3876 71.4274 85.3916H54.2948C53.4958 85.3894 52.706 85.2211 51.9755 84.8975L50.8063 84.3865C50.6095 84.2896 50.4447 84.1381 50.3318 83.95C50.2189 83.762 50.1627 83.5454 50.1698 83.3263L50.1719 83.0591Z" fill="white"/>
<path d="M51.0207 87.5118C51.0159 87.4569 51.0327 87.4023 51.0676 87.3595C51.1025 87.3167 51.1526 87.2892 51.2074 87.2828H74.8459C74.891 87.2882 74.9322 87.3109 74.9607 87.3461C74.9893 87.3814 75.0029 87.4264 74.9987 87.4716V87.9889C75.0047 88.1434 74.9683 88.2965 74.8935 88.4318C74.8187 88.5671 74.7083 88.6794 74.5743 88.7565L73.6194 89.2082C72.7645 89.622 71.8278 89.8394 70.8779 89.8443H54.8699C54.1205 89.8424 53.3807 89.6751 52.7034 89.3545L51.6127 88.8435C51.4252 88.7392 51.2704 88.5848 51.1658 88.3975C51.0613 88.2102 51.011 87.9975 51.0207 87.7833V87.5118Z" fill="white"/>
</svg>
