<svg width="53" height="23" viewBox="0 0 53 23" fill="none" xmlns="http://www.w3.org/2000/svg">
<path d="M16.8358 15.9725H32.4267L32.4444 18.3279L52.1138 18.4552V1H16.8358V15.9725Z" stroke="white" stroke-width="1.5" stroke-linejoin="round"/>
<path d="M7.63559 21.9564C9.66804 21.9564 11.3157 20.3034 11.3157 18.2642C11.3157 16.2251 9.66804 14.572 7.63559 14.572C5.60314 14.572 3.95551 16.2251 3.95551 18.2642C3.95551 20.3034 5.60314 21.9564 7.63559 21.9564Z" stroke="white" stroke-width="1.5" stroke-miterlimit="10"/>
<path d="M46.2765 22.0201C48.3089 22.0201 49.9566 20.367 49.9566 18.3279C49.9566 16.2887 48.3089 14.6357 46.2765 14.6357C44.244 14.6357 42.5964 16.2887 42.5964 18.3279C42.5964 20.367 44.244 22.0201 46.2765 22.0201Z" fill="#2369D9" stroke="white" stroke-width="1.5" stroke-miterlimit="10"/>
<path d="M25.4015 21.9564C27.434 21.9564 29.0816 20.3034 29.0816 18.2642C29.0816 16.2251 27.434 14.572 25.4015 14.572C23.3691 14.572 21.7214 16.2251 21.7214 18.2642C21.7214 20.3034 23.3691 21.9564 25.4015 21.9564Z" fill="#2369D9" stroke="white" stroke-width="1.5" stroke-miterlimit="10"/>
<path d="M11.3157 18.2642H21.7214" stroke="white" stroke-width="1.5" stroke-miterlimit="10"/>
<path d="M3.95551 18.2642H1.92511C1.67976 18.2642 1.44446 18.1665 1.27097 17.9924C1.09748 17.8183 1.00001 17.5823 1.00001 17.3361V10.0001C0.998541 9.51415 1.13024 9.03716 1.38071 8.62124L4.95801 2.73792C5.13618 2.44432 5.38666 2.20166 5.68537 2.03331C5.98407 1.86496 6.32094 1.77658 6.66354 1.77667H12.7255C13.0353 1.77667 13.3324 1.90004 13.5515 2.11967C13.7707 2.33929 13.894 2.63722 13.8943 2.94799V18.2642" stroke="white" stroke-width="1.5" stroke-miterlimit="10"/>
<path d="M4.39966 9.28834L7.44651 4.12054H11.3157V9.28834H4.39966Z" stroke="white" stroke-width="1.5" stroke-linejoin="round"/>
</svg>
