<svg width="810" height="270" viewBox="0 0 810 270" fill="none" xmlns="http://www.w3.org/2000/svg">
<path d="M235.579 264C249.451 264 260.697 252.721 260.697 238.808C260.697 224.895 249.451 213.616 235.579 213.616C221.707 213.616 210.462 224.895 210.462 238.808C210.462 252.721 221.707 264 235.579 264Z" fill="#BABABB" stroke="#3D3D3D" stroke-width="11" stroke-miterlimit="10"/>
<path d="M56.9659 264C70.8379 264 82.0834 252.721 82.0834 238.808C82.0834 224.895 70.8379 213.616 56.9659 213.616C43.0939 213.616 31.8484 224.895 31.8484 238.808C31.8484 252.721 43.0939 264 56.9659 264Z" fill="#BABABB" stroke="#3D3D3D" stroke-width="11" stroke-miterlimit="10"/>
<path d="M696.5 265C703.404 265 709 259.404 709 252.5C709 245.596 703.404 240 696.5 240C689.596 240 684 245.596 684 252.5C684 259.404 689.596 265 696.5 265Z" fill="#BABABB" stroke="#3D3D3D" stroke-width="8" stroke-miterlimit="10"/>
<path d="M631.5 265C638.404 265 644 259.404 644 252.5C644 245.596 638.404 240 631.5 240C624.596 240 619 245.596 619 252.5C619 259.404 624.596 265 631.5 265Z" fill="#BABABB" stroke="#3D3D3D" stroke-width="8" stroke-miterlimit="10"/>
<path d="M566.5 265C573.404 265 579 259.404 579 252.5C579 245.596 573.404 240 566.5 240C559.596 240 554 245.596 554 252.5C554 259.404 559.596 265 566.5 265Z" fill="#BABABB" stroke="#3D3D3D" stroke-width="8" stroke-miterlimit="10"/>
<path d="M548 245C548 245 566 216.021 585 245H612.5C612.5 245 630.5 215.5 650 245H677.5C677.5 245 696.5 216.5 715.5 245H741.229H762H766.959H780.5H805.812C806.36 245.002 806.904 244.957 807.412 244.868C807.92 244.778 808.382 244.646 808.771 244.478C809.161 244.311 809.47 244.112 809.681 243.892C809.891 243.673 810 243.438 810 243.2L809.737 224.709C809.706 222.522 807.924 220.766 805.737 220.766H313.5C310.739 220.766 308.5 218.527 308.5 215.766V183C308.5 180.239 306.261 178 303.5 178H149C147.343 178 146 179.343 146 181V207.5C146 209.157 147.343 210.5 149 210.5H187.592C189.428 210.5 191.159 209.665 192.408 208.319C200.782 199.296 235.751 167.205 278.073 207.602C279.959 209.402 281 211.959 281 214.566V245" fill="#DCDCDC"/>
<path d="M199.298 245.339H100.335C100.335 245.339 102.55 198.687 56.9659 198.687C56.9659 198.687 22.3596 195.179 17.1315 240.991C16.9992 242.182 16.4353 243.283 15.5469 244.085C14.6586 244.886 13.5076 245.333 12.3126 245.339H6.11697C5.40641 245.339 4.72494 245.056 4.22249 244.552C3.72005 244.048 3.43777 243.365 3.43777 242.652L3.58662 222.685L5.80068 221.08L3.60522 219.214L3.94012 172.562C3.94012 172.562 7.38215 97.9196 21.4852 96.0535L124.876 94.1874L125.025 212.291C125.025 212.642 124.886 212.979 124.638 213.228C124.39 213.476 124.054 213.616 123.704 213.616H119.76C119.167 213.616 118.6 213.852 118.181 214.272C117.762 214.692 117.527 215.261 117.527 215.855V222.592C117.526 223.165 117.747 223.716 118.142 224.13C118.538 224.544 119.077 224.788 119.648 224.812H125.044H192.917C194.777 224.812 201.847 226.678 201.159 228.545" fill="#DEDDD9"/>
<path d="M53.0588 98.1621L130.923 96.1654L129.807 69.9284C129.583 64.7967 128.486 60.5981 127.295 60.2995C118.308 58.2095 52.7798 98.1434 53.0588 98.1621Z" fill="#DEDDD9"/>
<path d="M14.7499 159.388C22.9736 159.687 61.5987 160.265 93.2281 146.325C93.8014 146.108 94.2987 145.727 94.659 145.23C95.0193 144.732 95.2269 144.14 95.2561 143.526L96.9678 123.186C96.9678 123.186 101.991 106.783 23.5876 111.99C23.0759 111.997 22.5769 112.15 22.1486 112.431C21.7203 112.711 21.3805 113.109 21.1689 113.576C19.5502 118.185 14.7499 133.487 13.2429 158.044C13.2523 158.232 13.299 158.417 13.3802 158.586C13.4614 158.756 13.5754 158.908 13.7157 159.033C13.856 159.158 14.0197 159.254 14.1972 159.315C14.3748 159.376 14.5627 159.401 14.7499 159.388V159.388Z" fill="#F8F8F8"/>
<path d="M138.7 219.214H189.419C190.07 219.214 190.695 219.474 191.155 219.936C191.616 220.398 191.875 221.024 191.875 221.678V250.322C191.875 250.98 191.614 251.611 191.15 252.077C190.686 252.542 190.057 252.804 189.4 252.804H139.816C138.83 252.804 137.883 252.41 137.185 251.71C136.487 251.011 136.095 250.061 136.095 249.071V221.883C136.095 221.185 136.368 220.514 136.855 220.015C137.342 219.517 138.004 219.229 138.7 219.214V219.214Z" fill="#707070"/>
<path d="M132.318 94.1874H124.876V198.687H132.318V94.1874Z" fill="#DEDDD9"/>
<path d="M76.5017 101.652H72.7806V159.5H76.5017V101.652Z" fill="#DEDDD9"/>
<path d="M3.94009 223.879C5.48143 223.879 6.73092 222.208 6.73092 220.147C6.73092 218.086 5.48143 216.415 3.94009 216.415C2.39876 216.415 1.14926 218.086 1.14926 220.147C1.14926 222.208 2.39876 223.879 3.94009 223.879Z" fill="white" stroke="white" stroke-width="0.5" stroke-miterlimit="10"/>
<path d="M13.9872 107.25L5.80078 112.363C5.80078 112.363 7.66134 114.714 15.3082 112.363" fill="#707070"/>
<path d="M6.73097 159.5C6.73097 159.5 2.07958 157.466 1.1493 183.759C0.219027 210.052 3.94014 215.482 3.94014 215.482" fill="#DEDDD9"/>
<path d="M83.9439 198.202H119.294" stroke="white" stroke-width="0.25" stroke-miterlimit="10" stroke-linecap="round"/>
<path d="M96.9678 93.2546H127.667" stroke="white" stroke-width="0.25" stroke-miterlimit="10" stroke-linecap="round"/>
<path d="M13.2429 174.858V198.202" stroke="white" stroke-width="0.25" stroke-miterlimit="10" stroke-linecap="round"/>
<path d="M143.482 225.241V248.586" stroke="white" stroke-width="0.25" stroke-miterlimit="10" stroke-linecap="round"/>
<path d="M184.414 225.241V248.586" stroke="white" stroke-width="0.25" stroke-miterlimit="10" stroke-linecap="round"/>
<path d="M95.1073 158.063V174.428" stroke="white" stroke-width="0.25" stroke-miterlimit="10" stroke-linecap="round"/>
<path d="M199.298 228.545C199.298 228.545 208.601 200.553 235.579 200.553C271.86 200.553 273.72 239.741 273.72 239.741" stroke="#3D3D3D" stroke-width="3" stroke-miterlimit="10" stroke-linecap="round"/>
<path d="M119.295 249.071C125.46 249.071 130.458 246.147 130.458 242.54C130.458 238.933 125.46 236.009 119.295 236.009C113.129 236.009 108.131 238.933 108.131 242.54C108.131 246.147 113.129 249.071 119.295 249.071Z" fill="#DEDDD9"/>
<path d="M793.19 100.117C793.11 99.0057 793.946 98.04 795.056 97.9597V97.9597C796.154 97.8803 797.113 98.6958 797.211 99.7921L798.945 119.268L807.439 214.636C807.587 216.292 806.349 217.748 804.69 217.867V217.867C803.052 217.986 801.627 216.754 801.509 215.115L793.19 100.117Z" fill="#C4C4C4"/>
<path d="M794.5 174L788.5 216.5" stroke="#DCDCDC"/>
<path d="M284.5 251.5H540.5" stroke="#C4C4C4" stroke-width="4" stroke-linecap="round"/>
<path d="M589 251H610" stroke="#C4C4C4" stroke-width="4" stroke-linecap="round"/>
<path d="M653 251H674" stroke="#C4C4C4" stroke-width="4" stroke-linecap="round"/>
<path d="M718 251H808" stroke="#C4C4C4" stroke-width="4" stroke-linecap="round"/>
<path d="M150 137C150 134.791 151.791 133 154 133H300C302.209 133 304 134.791 304 137V178H150V137Z" fill="#C4C4C4"/>
<line x1="314" y1="222" x2="801" y2="222" stroke="#707070" stroke-width="2"/>
<rect x="322" y="227" width="14" height="12" rx="2" fill="#C4C4C4"/>
<rect x="420" y="227" width="14" height="12" rx="2" fill="#C4C4C4"/>
<rect x="518" y="227" width="14" height="12" rx="2" fill="#C4C4C4"/>
<rect x="657" y="227" width="14" height="12" rx="2" fill="#C4C4C4"/>
<rect x="755" y="227" width="14" height="12" rx="2" fill="#C4C4C4"/>
<path d="M774.105 148H658.901V103.216C658.9 102.799 658.98 102.386 659.139 102.001C659.297 101.615 659.53 101.264 659.824 100.969C660.119 100.674 660.469 100.439 660.854 100.279C661.239 100.119 661.652 100.037 662.069 100.037H767.358C768.167 100.038 768.946 100.343 769.54 100.891C770.135 101.439 770.501 102.191 770.567 102.997L774.105 148Z" fill="#FCBC5E"/>
<path d="M753.533 98.6666H702.789C702.031 98.6666 701.417 99.2802 701.417 100.037V139.778C701.417 140.535 702.031 141.148 702.789 141.148H753.533C754.291 141.148 754.905 140.535 754.905 139.778V100.037C754.905 99.2802 754.291 98.6666 753.533 98.6666Z" fill="#FCD4AE"/>
<path d="M479.238 98.6666H440.837V104.148H479.238V98.6666Z" fill="#E0DFE0"/>
<path d="M576.613 154.852H562.898V190.482H576.613V154.852Z" fill="#CCCCCC"/>
<path d="M519.011 97.2963C519.011 97.2963 516.268 95.9259 509.411 95.9259L477.016 95.0078C476.857 95.0041 476.698 95.0322 476.549 95.0903C476.401 95.1484 476.265 95.2354 476.15 95.3463C476.035 95.4572 475.944 95.5898 475.88 95.7363C475.817 95.8828 475.784 96.0404 475.782 96.2V105.176C475.782 105.539 475.927 105.888 476.184 106.145C476.441 106.402 476.79 106.546 477.154 106.546L523.057 108.259L519.011 97.2963Z" fill="#FCBC5E"/>
<path d="M591.699 190.481L602.506 191.989C605.457 192.388 608.45 191.659 610.886 189.947L633.364 174.037L712.91 182.259H745.825C747.891 182.265 749.934 181.831 751.819 180.985C759.746 177.463 781.305 167.679 781.155 165.609C781.004 163.54 781.155 153.605 781.155 149.631C781.158 149.417 781.119 149.204 781.039 149.006C780.959 148.807 780.84 148.626 780.69 148.474C780.539 148.322 780.359 148.202 780.161 148.121C779.963 148.039 779.75 147.998 779.536 148H711.127L701.444 124.704H641.772L628.057 148H591.699V190.481Z" fill="#F69700"/>
<path d="M672.616 221.63C696.097 221.63 715.132 202.61 715.132 179.148C715.132 155.686 696.097 136.667 672.616 136.667C649.135 136.667 630.1 155.686 630.1 179.148C630.1 202.61 649.135 221.63 672.616 221.63Z" fill="#595655"/>
<path d="M527.951 103.558C528.376 100.561 525.072 97.6158 520.573 96.98C516.074 96.3443 512.082 98.2585 511.658 101.256C511.234 104.253 514.538 107.198 519.037 107.833C523.536 108.469 527.527 106.555 527.951 103.558Z" fill="#FDAA1E"/>
<path d="M443.58 160.333L435.461 102.093C435.461 102.093 434.089 94.5555 439.575 93.884C443.895 93.3222 445.335 97.5977 445.733 99.3655C445.939 100.215 446.186 101.051 446.46 101.873L458.666 139.778L443.58 160.333Z" fill="#FCBC5E"/>
<path d="M591.699 149.37V126.197H640.894L627.385 148.288C627.185 148.618 626.903 148.891 626.567 149.08C626.23 149.27 625.851 149.37 625.465 149.37H591.699Z" fill="#DA9841"/>
<path d="M473.752 130.185C473.752 130.185 474.671 127.444 469.638 127.184C467.374 127.102 465.124 127.572 463.082 128.554L446.433 136.434C445.77 136.731 445.181 137.169 444.707 137.719C444.233 138.268 443.886 138.915 443.69 139.613C443.532 140.225 443.508 140.864 443.619 141.486C443.73 142.107 443.974 142.698 444.334 143.217C444.767 143.842 445.319 144.375 445.96 144.784C446.6 145.193 447.316 145.471 448.065 145.602L453.194 146.63L473.752 130.185Z" fill="#E2B171"/>
<path d="M436.652 178.957L401.012 180.089L401.142 184.198L436.783 183.066L436.652 178.957Z" fill="#E0DFE0"/>
<path d="M532.726 98.6667L534.207 96.666C535.014 95.5853 536.208 94.8585 537.54 94.6378L544.808 93.4593C545.021 93.4224 545.238 93.429 545.448 93.4786C545.658 93.5283 545.855 93.6199 546.028 93.7481C546.201 93.8762 546.346 94.0382 546.455 94.2241C546.564 94.41 546.633 94.616 546.66 94.8297C547.867 104.258 554.148 150.878 561.554 152.111H566.162V195.346H547.359C546.777 195.36 546.205 195.189 545.726 194.856C545.248 194.523 544.888 194.047 544.699 193.496C544.027 191.55 542.148 188.632 536.84 187.741L513.525 141.148L528.611 132.926V106.889L532.726 98.6667Z" fill="#F99A00"/>
<path d="M509.397 141.148L524.483 124.704L527.226 115.111L531.341 112.37L536.826 132.926L512.14 142.519L509.397 141.148Z" fill="#FCBC5E"/>
<path d="M454.744 175.407L440.837 193.222C438.863 195.055 436.527 196.456 433.98 197.333C429.865 198.704 399.693 208.296 399.693 208.296C399.693 208.296 401.064 200.074 399.693 195.963C399.693 195.963 427.246 187.576 435.351 170.817C437.21 166.92 439.337 163.156 441.715 159.552C448.174 149.836 459.187 134.036 463.754 132.021C471.009 128.815 532.726 98.6666 532.726 98.6666C532.726 98.6666 528.611 109.63 531.354 112.37L454.744 175.407Z" fill="#FC9D00"/>
<path d="M497.067 222C520.548 222 539.583 202.98 539.583 179.519C539.583 156.057 520.548 137.037 497.067 137.037C473.587 137.037 454.552 156.057 454.552 179.519C454.552 202.98 473.587 222 497.067 222Z" fill="#595655"/>
<path d="M497.753 195.963C507.221 195.963 514.897 188.294 514.897 178.833C514.897 169.373 507.221 161.704 497.753 161.704C488.285 161.704 480.61 169.373 480.61 178.833C480.61 188.294 488.285 195.963 497.753 195.963Z" fill="#DE7601"/>
<path d="M671.93 195.963C681.398 195.963 689.074 188.294 689.074 178.833C689.074 169.373 681.398 161.704 671.93 161.704C662.462 161.704 654.787 169.373 654.787 178.833C654.787 188.294 662.462 195.963 671.93 195.963Z" fill="#DE7601"/>
<path d="M498.439 189.111C503.741 189.111 508.039 184.816 508.039 179.519C508.039 174.221 503.741 169.926 498.439 169.926C493.137 169.926 488.839 174.221 488.839 179.519C488.839 184.816 493.137 189.111 498.439 189.111Z" fill="#FEA700"/>
<path d="M672.616 189.111C677.918 189.111 682.216 184.816 682.216 179.519C682.216 174.221 677.918 169.926 672.616 169.926C667.314 169.926 663.016 174.221 663.016 179.519C663.016 184.816 667.314 189.111 672.616 189.111Z" fill="#FEA700"/>
<path d="M516.954 104.148C518.09 104.148 519.011 103.228 519.011 102.093C519.011 100.957 518.09 100.037 516.954 100.037C515.818 100.037 514.897 100.957 514.897 102.093C514.897 103.228 515.818 104.148 516.954 104.148Z" fill="#847C6F"/>
<path d="M440.837 102.778C441.594 102.778 442.208 102.164 442.208 101.407C442.208 100.651 441.594 100.037 440.837 100.037C440.079 100.037 439.465 100.651 439.465 101.407C439.465 102.164 440.079 102.778 440.837 102.778Z" fill="#847C6F"/>
<path d="M540.433 103.477C541.532 103.477 542.422 102.587 542.422 101.49C542.422 100.392 541.532 99.5026 540.433 99.5026C539.335 99.5026 538.445 100.392 538.445 101.49C538.445 102.587 539.335 103.477 540.433 103.477Z" fill="#847C6F"/>
<path d="M447.694 142.519C448.452 142.519 449.066 141.905 449.066 141.148C449.066 140.391 448.452 139.778 447.694 139.778C446.937 139.778 446.323 140.391 446.323 141.148C446.323 141.905 446.937 142.519 447.694 142.519Z" fill="#847C6F"/>
<path d="M393.567 214.798C396.206 214.721 398.731 213.686 400.694 211.877C402.547 209.978 402.048 205.245 401.492 202.177C401.122 200.191 400.794 198.189 400.523 196.188C399.554 188.884 395.791 170.537 382.164 163.467C380.531 162.64 378.976 161.662 377.517 160.545C374.88 158.5 368.865 154.922 356.507 152H340.514C340.827 152 343.678 154.922 355.081 156.382L329.424 216.274L321.242 221.05C321.148 221.108 321.075 221.197 321.034 221.302C320.994 221.408 320.989 221.524 321.02 221.632C321.051 221.741 321.116 221.836 321.205 221.902C321.295 221.969 321.403 222.003 321.513 222C332.303 221.445 382.135 218.698 393.567 214.798Z" fill="#F39501"/>
<path d="M326.5 222L357 152L363 153.5L335.5 221.5L326.5 222Z" fill="#565452"/>
<path d="M387.336 166.692C387.336 166.692 403.793 175.407 405.165 180.889C405.165 180.889 407.441 184.916 399.5 191L387.336 166.692Z" fill="#FCBC5E"/>
<path d="M401.064 183.63C401.822 183.63 402.436 183.016 402.436 182.259C402.436 181.502 401.822 180.889 401.064 180.889C400.307 180.889 399.693 181.502 399.693 182.259C399.693 183.016 400.307 183.63 401.064 183.63Z" fill="#847C6F"/>
<path d="M499.797 121.963L502.224 127.17L529.969 128.815L545.055 154.852H549.842L535.661 121.963H499.797Z" fill="#5E5C5C"/>
<path d="M600.449 126.184L658.888 126.074L652.03 31.5185L600.449 29.463V126.184Z" fill="#FCBC5E"/>
<path d="M572.498 186.37V176.778C572.498 176.778 572.69 175.407 569.166 174.037H576.613V167.185H568.384V165.609H575.872V166.774H585.61L586.213 167.185V190.481L572.498 186.37Z" fill="#595655"/>
<path d="M566.135 153.481H575.241V152.111H578.848V150.919H575.543C575.474 150.92 575.406 150.906 575.343 150.877C575.281 150.849 575.225 150.807 575.181 150.755C575.136 150.702 575.104 150.641 575.086 150.574C575.068 150.508 575.065 150.438 575.077 150.371C575.214 149.535 575.612 148 576.613 148H585.5V150.741H583.059L583.47 152.111L585.5 152.55V156.222H583.47V158.963C583.47 158.963 586.213 159.689 585.5 160.018C584.787 160.347 585.61 166.774 585.61 166.774H575.872V165.609H568.384V162.238C568.383 162.059 568.424 161.881 568.502 161.72C568.581 161.558 568.695 161.417 568.837 161.306C569.481 160.753 570.281 160.414 571.127 160.333C572.224 160.333 572.498 157.675 572.498 156.633C572.5 156.581 572.491 156.528 572.472 156.479C572.453 156.43 572.424 156.385 572.386 156.348C572.349 156.311 572.304 156.282 572.255 156.262C572.206 156.243 572.153 156.234 572.101 156.236L566.149 156.4L566.135 153.481Z" fill="#757170"/>
<path d="M568.384 167.185H576.613V174.037H568.905C568.767 174.037 568.634 173.982 568.537 173.884C568.439 173.787 568.384 173.654 568.384 173.516V167.185V167.185Z" fill="#4F4B48"/>
<path d="M573.87 194.593V186.494C573.87 186.494 579.356 183.63 580.727 185L585.61 184.63L586.213 190.481V193.606H583.47V195.963H577.984V194.593H573.87Z" fill="#4F4B48"/>
<path d="M573.87 186.37H565.641V194.593H573.87V186.37Z" fill="#595655"/>
<path d="M772.734 148H727.475C726.718 148 726.104 148.614 726.104 149.37V163.074C726.104 163.831 726.718 164.444 727.475 164.444H772.734C773.491 164.444 774.105 163.831 774.105 163.074V149.37C774.105 148.614 773.491 148 772.734 148Z" fill="#D89339"/>
<path d="M591.699 167.185H586.213V190.481H591.699V167.185Z" fill="#595655"/>
<path d="M591.699 148H584.842V167.185H591.699V148Z" fill="#4F4B48"/>
<path d="M602.671 149.37H601.299V189.111H602.671V149.37Z" fill="#2E2925"/>
<path d="M623.243 189.111V186.37H601.299V189.111H623.243Z" fill="#2E2925"/>
<path d="M623.243 171.296V167.185H601.299V171.296H623.243Z" fill="#2E2925"/>
<path d="M623.243 153.481V149.37H601.299V153.481H623.243Z" fill="#2E2925"/>
<path d="M623.243 149.37H621.872V189.111H623.243V149.37Z" fill="#2E2925"/>
<path d="M627.371 148H630.32C630.501 148.001 630.68 147.953 630.837 147.861C630.994 147.77 631.123 147.638 631.211 147.479L643.815 126.074H700.046L710.112 146.63C710.294 147.035 710.588 147.38 710.96 147.623C711.332 147.866 711.766 147.997 712.211 148H715.091C715.238 148.001 715.384 147.965 715.513 147.894C715.643 147.823 715.752 147.72 715.831 147.595C715.909 147.47 715.954 147.327 715.961 147.179C715.969 147.032 715.938 146.885 715.872 146.753L702.789 120.593H642.444L626.823 147.027C626.765 147.124 626.734 147.235 626.732 147.349C626.731 147.462 626.76 147.573 626.815 147.672C626.871 147.771 626.952 147.853 627.049 147.911C627.147 147.968 627.258 147.999 627.371 148V148Z" fill="#E28605"/>
<path d="M562.884 124.184C562.884 125.288 563.78 126.184 564.884 126.184H600.449V26.8867H575.872L562.884 106.3V124.184Z" fill="#FC9D00"/>
<path d="M562.898 106.478C562.898 106.478 579.356 117.852 587.585 117.852H594.442C594.442 117.852 595.814 117.852 598.556 115.111V38.7815C598.556 38.7815 598.556 34.8485 588.27 33.1766C588.27 33.1766 576.613 30.1481 575.241 30.1481L562.898 106.478Z" fill="#9AD6EF"/>
<path d="M639.55 31.2582H605.414V119.222H639.55V31.2582Z" fill="#FFAA01"/>
<path d="M631.472 94.5556H612.271C610.756 94.5556 609.528 95.7827 609.528 97.2963V111C609.528 112.514 610.756 113.741 612.271 113.741H631.472C632.987 113.741 634.215 112.514 634.215 111V97.2963C634.215 95.7827 632.987 94.5556 631.472 94.5556Z" fill="#9AD6EF"/>
<path d="M631.472 35.6296H612.271C610.756 35.6296 609.528 36.8567 609.528 38.3704V83.5926C609.528 85.1063 610.756 86.3334 612.271 86.3334H631.472C632.987 86.3334 634.215 85.1063 634.215 83.5926V38.3704C634.215 36.8567 632.987 35.6296 631.472 35.6296Z" fill="#9AD6EF"/>
<path d="M652.044 27.4074H599.928V31.5185H652.044V27.4074Z" fill="#F4A337"/>
<path d="M576.613 27.4074H587.31C587.31 27.4074 587.31 21.2955 584.663 18.1026C584.369 17.7324 583.999 17.4294 583.577 17.214C583.156 16.9986 582.693 16.8757 582.22 16.8536C581.747 16.8316 581.275 16.9108 580.836 17.0861C580.396 17.2613 579.999 17.5284 579.671 17.8696C578.218 19.3359 576.613 22.1452 576.613 27.4074Z" fill="#DD8A37"/>
<path d="M730.218 74H715.132V98.6667H730.218V74Z" fill="#E7E6E7"/>
<path d="M721.989 63.037H723.361C723.724 63.037 724.073 63.1814 724.33 63.4384C724.588 63.6954 724.732 64.0439 724.732 64.4074V75.3703H720.618V64.4074C720.618 64.0439 720.762 63.6954 721.019 63.4384C721.277 63.1814 721.625 63.037 721.989 63.037Z" fill="#E7E6E7"/>
<path d="M624.614 0H623.243V1.37037H624.614V0Z" fill="#FCD4AE"/>
<path d="M753.533 98.6667H732.961V91.8148C732.961 91.4514 733.105 91.1028 733.363 90.8458C733.62 90.5888 733.969 90.4445 734.332 90.4445H752.162C752.525 90.4445 752.874 90.5888 753.131 90.8458C753.389 91.1028 753.533 91.4514 753.533 91.8148V98.6667Z" fill="#FCBC5E"/>
<path d="M752.162 93.1852H754.905C755.066 93.1816 755.219 93.1151 755.332 92.9998C755.445 92.8845 755.508 92.7297 755.508 92.5685V84.963H753.053C752.876 84.9642 752.703 84.9193 752.549 84.8328C752.395 84.7462 752.266 84.6211 752.175 84.4696L751.023 82.5648C750.949 82.4482 750.909 82.3127 750.909 82.1743C750.909 82.0359 750.949 81.9004 751.023 81.7837L755.138 75.3156C755.244 75.147 755.392 75.0083 755.567 74.9124C755.743 74.8165 755.939 74.7666 756.139 74.7674H759.91C760.049 74.7663 760.186 74.7981 760.31 74.86C760.434 74.9219 760.541 75.0123 760.624 75.1237L765.52 81.7426C765.619 81.8694 765.68 82.0222 765.695 82.1827C765.709 82.3431 765.677 82.5044 765.602 82.647L764.697 84.4422C764.63 84.5816 764.525 84.6993 764.394 84.7817C764.263 84.8641 764.111 84.908 763.956 84.9082H761.734V97.8582C761.731 98.0593 761.648 98.251 761.505 98.392C761.361 98.5329 761.168 98.6119 760.966 98.6119H752.162V93.1852Z" fill="#565452"/>
</svg>
