<svg width="810" height="215" viewBox="0 0 810 215" fill="none" xmlns="http://www.w3.org/2000/svg">
<path d="M235.579 209C249.451 209 260.697 197.721 260.697 183.808C260.697 169.895 249.451 158.616 235.579 158.616C221.707 158.616 210.462 169.895 210.462 183.808C210.462 197.721 221.707 209 235.579 209Z" fill="#BABABB" stroke="#3D3D3D" stroke-width="11" stroke-miterlimit="10"/>
<path d="M56.9659 209C70.8379 209 82.0834 197.721 82.0834 183.808C82.0834 169.895 70.8379 158.616 56.9659 158.616C43.0939 158.616 31.8484 169.895 31.8484 183.808C31.8484 197.721 43.0939 209 56.9659 209Z" fill="#BABABB" stroke="#3D3D3D" stroke-width="11" stroke-miterlimit="10"/>
<path d="M702.578 209C716.45 209 727.696 197.721 727.696 183.808C727.696 169.895 716.45 158.616 702.578 158.616C688.706 158.616 677.461 169.895 677.461 183.808C677.461 197.721 688.706 209 702.578 209Z" fill="#BABABB" stroke="#3D3D3D" stroke-width="11" stroke-miterlimit="10"/>
<path d="M631.877 209C645.749 209 656.995 197.721 656.995 183.808C656.995 169.895 645.749 158.616 631.877 158.616C618.005 158.616 606.76 169.895 606.76 183.808C606.76 197.721 618.005 209 631.877 209Z" fill="#BABABB" stroke="#3D3D3D" stroke-width="11" stroke-miterlimit="10"/>
<path d="M555.595 209C569.467 209 580.712 197.721 580.712 183.808C580.712 169.895 569.467 158.616 555.595 158.616C541.723 158.616 530.477 169.895 530.477 183.808C530.477 197.721 541.723 209 555.595 209Z" fill="#BABABB" stroke="#3D3D3D" stroke-width="11" stroke-miterlimit="10"/>
<path d="M530.477 154.884C530.477 154.884 553.194 129.561 584.433 154.884H606.76C606.76 154.884 630.947 131.427 656.995 154.884H677.461C677.461 154.884 701.648 129.561 727.696 154.884H805.374C805.922 154.889 806.465 154.785 806.973 154.578C807.481 154.371 807.943 154.065 808.332 153.678C808.721 153.291 809.03 152.831 809.241 152.324C809.452 151.816 809.56 151.272 809.56 150.723V4.90777C809.56 3.60615 809.045 2.35784 808.127 1.43745C807.209 0.517067 805.965 0 804.667 0L145.807 0C144.692 0 143.623 0.444323 142.834 1.23522C142.046 2.02613 141.603 3.09882 141.603 4.21732V149.286C141.603 151.637 142.979 154.884 145.324 154.884H197.419C197.419 154.884 234.63 115.696 273.702 154.884H281.144" fill="#DCDCDC"/>
<path d="M306.206 158.616H512.485C515.239 158.616 517.453 160.109 517.453 161.938V186.887C517.453 188.753 515.146 190.339 512.281 190.339H306.41C303.768 190.339 301.629 188.902 301.629 187.148V161.676C301.629 159.978 303.675 158.616 306.206 158.616Z" fill="#51565B"/>
<path d="M740.72 161.173V187.951C740.72 188.575 740.963 189.174 741.397 189.62C741.832 190.067 742.424 190.325 743.045 190.339H802.955C803.705 190.339 804.425 190.04 804.955 189.508C805.485 188.977 805.783 188.255 805.783 187.503V161.005C805.783 160.381 805.54 159.781 805.106 159.335C804.671 158.889 804.079 158.631 803.458 158.616H743.269C742.593 158.616 741.944 158.885 741.466 159.365C740.988 159.844 740.72 160.495 740.72 161.173Z" fill="#51565B"/>
<path d="M199.298 190.339H100.335C100.335 190.339 102.55 143.687 56.9659 143.687C56.9659 143.687 22.3596 140.179 17.1315 185.991C16.9992 187.182 16.4353 188.283 15.5469 189.085C14.6586 189.887 13.5076 190.333 12.3126 190.339H6.11697C5.40641 190.339 4.72494 190.056 4.22249 189.552C3.72005 189.048 3.43777 188.365 3.43777 187.652L3.58662 167.685L5.80068 166.08L3.60522 164.214L3.94012 117.562C3.94012 117.562 7.38215 42.9196 21.4852 41.0536L124.876 39.1875L125.025 157.291C125.025 157.643 124.886 157.98 124.638 158.228C124.39 158.476 124.054 158.616 123.704 158.616H119.76C119.167 158.616 118.6 158.852 118.181 159.272C117.762 159.692 117.527 160.261 117.527 160.855V167.592C117.526 168.165 117.747 168.716 118.142 169.13C118.538 169.544 119.077 169.788 119.648 169.812H125.044H192.917C194.777 169.812 201.847 171.679 201.159 173.545" fill="#DEDDD9"/>
<path d="M53.0588 43.1621L130.923 41.1654L129.807 14.9285C129.583 9.79677 128.486 5.59811 127.295 5.29954C118.308 3.20954 52.7798 43.1435 53.0588 43.1621Z" fill="#DEDDD9"/>
<path d="M14.7499 104.388C22.9736 104.687 61.5987 105.265 93.2281 91.3255C93.8014 91.108 94.2987 90.7271 94.659 90.2298C95.0193 89.7325 95.2269 89.1404 95.2561 88.5264L96.9678 68.1862C96.9678 68.1862 101.991 51.7835 23.5876 56.9898C23.0759 56.9969 22.5769 57.1498 22.1486 57.4307C21.7203 57.7115 21.3805 58.1087 21.1689 58.576C19.5502 63.1852 14.7499 78.4869 13.2429 103.044C13.2523 103.232 13.299 103.417 13.3802 103.586C13.4614 103.756 13.5754 103.908 13.7157 104.033C13.856 104.158 14.0197 104.254 14.1972 104.315C14.3748 104.376 14.5627 104.401 14.7499 104.388Z" fill="#F8F8F8"/>
<path d="M138.7 164.214H189.419C190.07 164.214 190.695 164.474 191.155 164.936C191.616 165.398 191.875 166.024 191.875 166.678V195.322C191.875 195.98 191.614 196.611 191.15 197.077C190.686 197.542 190.057 197.804 189.4 197.804H139.816C138.83 197.804 137.883 197.41 137.185 196.711C136.487 196.011 136.095 195.061 136.095 194.071V166.883C136.095 166.185 136.368 165.514 136.855 165.015C137.342 164.517 138.004 164.229 138.7 164.214Z" fill="#707070"/>
<path d="M132.318 39.1875H124.876V143.687H132.318V39.1875Z" fill="#DEDDD9"/>
<path d="M76.5017 46.6518H72.7806V104.5H76.5017V46.6518Z" fill="#DEDDD9"/>
<path d="M3.94009 168.879C5.48143 168.879 6.73092 167.209 6.73092 165.147C6.73092 163.086 5.48143 161.415 3.94009 161.415C2.39876 161.415 1.14926 163.086 1.14926 165.147C1.14926 167.209 2.39876 168.879 3.94009 168.879Z" fill="white" stroke="white" stroke-width="0.5" stroke-miterlimit="10"/>
<path d="M13.9872 52.25L5.80078 57.363C5.80078 57.363 7.66134 59.7143 15.3082 57.363" fill="#707070"/>
<path d="M6.73097 104.5C6.73097 104.5 2.07958 102.466 1.1493 128.759C0.219027 155.052 3.94014 160.482 3.94014 160.482" fill="#DEDDD9"/>
<path d="M83.9439 143.202H119.294" stroke="white" stroke-width="0.25" stroke-miterlimit="10" stroke-linecap="round"/>
<path d="M96.9678 38.2546H127.667" stroke="white" stroke-width="0.25" stroke-miterlimit="10" stroke-linecap="round"/>
<path d="M13.2429 119.858V143.202" stroke="white" stroke-width="0.25" stroke-miterlimit="10" stroke-linecap="round"/>
<path d="M143.482 170.242V193.586" stroke="white" stroke-width="0.25" stroke-miterlimit="10" stroke-linecap="round"/>
<path d="M184.414 170.242V193.586" stroke="white" stroke-width="0.25" stroke-miterlimit="10" stroke-linecap="round"/>
<path d="M95.1073 103.063V119.428" stroke="white" stroke-width="0.25" stroke-miterlimit="10" stroke-linecap="round"/>
<path d="M199.298 173.545C199.298 173.545 208.601 145.554 235.579 145.554C271.86 145.554 273.72 184.741 273.72 184.741" stroke="#3D3D3D" stroke-width="3" stroke-miterlimit="10" stroke-linecap="round"/>
<path d="M119.295 194.072C125.46 194.072 130.458 191.147 130.458 187.54C130.458 183.933 125.46 181.009 119.295 181.009C113.129 181.009 108.131 183.933 108.131 187.54C108.131 191.147 113.129 194.072 119.295 194.072Z" fill="#DEDDD9"/>
<path d="M148.529 11.5621C148.529 10.4576 149.425 9.56213 150.529 9.56213H469.704C471.008 9.56213 471.963 10.79 471.642 12.054L460.815 54.724C460.716 55.1146 460.738 55.526 460.876 55.9044L475.536 95.8851C475.637 96.1609 475.676 96.4557 475.65 96.7484L472.435 133.41C472.344 134.443 471.479 135.235 470.442 135.235H150.529C149.425 135.235 148.529 134.34 148.529 133.235V11.5621Z" fill="#C4C4C4"/>
<line x1="337.173" y1="9.56213" x2="337.173" y2="135.235" stroke="#DCDCDC" stroke-width="3"/>
<line x1="421.866" y1="9.56213" x2="421.866" y2="135.235" stroke="#DCDCDC" stroke-width="3"/>
<line x1="242.918" y1="9.56213" x2="242.918" y2="135.235" stroke="#DCDCDC" stroke-width="3"/>
<path d="M529.59 43.1674V55.0674H526.836V45.3774H524.456V43.1674H529.59ZM537.216 48.0124C538.259 48.1824 539.058 48.5734 539.613 49.1854C540.169 49.786 540.446 50.534 540.446 51.4294C540.446 52.1207 540.265 52.761 539.902 53.3504C539.54 53.9284 538.984 54.393 538.236 54.7444C537.5 55.0957 536.593 55.2714 535.516 55.2714C534.678 55.2714 533.85 55.1637 533.034 54.9484C532.23 54.7217 531.544 54.4044 530.977 53.9964L532.048 51.8884C532.502 52.2284 533.023 52.4947 533.612 52.6874C534.213 52.8687 534.825 52.9594 535.448 52.9594C536.14 52.9594 536.684 52.829 537.08 52.5684C537.477 52.2964 537.675 51.9167 537.675 51.4294C537.675 50.4547 536.933 49.9674 535.448 49.9674H534.19V48.1484L536.638 45.3774H531.572V43.1674H539.902V44.9524L537.216 48.0124ZM543.299 51.9054C543.775 51.9054 544.166 52.0584 544.472 52.3644C544.778 52.659 544.931 53.05 544.931 53.5374C544.931 53.764 544.903 53.9907 544.846 54.2174C544.789 54.444 544.665 54.784 544.472 55.2374L543.503 57.6854H541.82L542.568 54.9824C542.285 54.869 542.058 54.6877 541.888 54.4384C541.729 54.1777 541.65 53.8774 541.65 53.5374C541.65 53.05 541.803 52.659 542.109 52.3644C542.426 52.0584 542.823 51.9054 543.299 51.9054ZM557.064 52.5684H555.126V55.0674H552.44V52.5684H546.031V50.7154L551.641 43.1674H554.531L549.329 50.3244H552.525V48.0974H555.126V50.3244H557.064V52.5684ZM572.239 55.0674V49.5934L569.502 54.1834H568.38L565.711 49.5764V55.0674H563.314V45.9214H566.085L569.009 51.2084L572.12 45.9214H574.602L574.636 55.0674H572.239Z" fill="#707070"/>
<path d="M700.81 124.086V126.33H691.817V124.545L696.407 120.21C696.894 119.745 697.223 119.349 697.393 119.02C697.563 118.68 697.648 118.346 697.648 118.017C697.648 117.541 697.483 117.178 697.155 116.929C696.837 116.668 696.367 116.538 695.744 116.538C695.222 116.538 694.752 116.64 694.333 116.844C693.913 117.037 693.562 117.331 693.279 117.728L691.273 116.436C691.737 115.745 692.378 115.206 693.194 114.821C694.01 114.424 694.945 114.226 695.999 114.226C696.883 114.226 697.653 114.373 698.311 114.668C698.979 114.951 699.495 115.359 699.858 115.892C700.232 116.413 700.419 117.031 700.419 117.745C700.419 118.391 700.283 118.997 700.011 119.564C699.739 120.131 699.212 120.777 698.43 121.502L695.693 124.086H700.81ZM703.693 123.168C704.169 123.168 704.56 123.321 704.866 123.627C705.172 123.922 705.325 124.313 705.325 124.8C705.325 125.027 705.297 125.253 705.24 125.48C705.184 125.707 705.059 126.047 704.866 126.5L703.897 128.948H702.214L702.962 126.245C702.679 126.132 702.452 125.95 702.282 125.701C702.124 125.44 702.044 125.14 702.044 124.8C702.044 124.313 702.197 123.922 702.503 123.627C702.821 123.321 703.217 123.168 703.693 123.168ZM712.075 118.867C712.834 118.867 713.525 119.02 714.149 119.326C714.772 119.632 715.265 120.068 715.628 120.635C715.99 121.19 716.172 121.836 716.172 122.573C716.172 123.366 715.973 124.063 715.577 124.664C715.18 125.265 714.636 125.729 713.945 126.058C713.265 126.375 712.505 126.534 711.667 126.534C710.001 126.534 708.697 126.024 707.757 125.004C706.816 123.984 706.346 122.528 706.346 120.635C706.346 119.286 706.601 118.13 707.111 117.167C707.621 116.204 708.329 115.473 709.236 114.974C710.154 114.475 711.213 114.226 712.415 114.226C713.049 114.226 713.656 114.3 714.234 114.447C714.823 114.583 715.322 114.781 715.73 115.042L714.71 117.065C714.12 116.668 713.378 116.47 712.483 116.47C711.474 116.47 710.675 116.765 710.086 117.354C709.496 117.943 709.179 118.799 709.134 119.921C709.836 119.218 710.817 118.867 712.075 118.867ZM711.514 124.477C712.103 124.477 712.579 124.318 712.942 124.001C713.316 123.684 713.503 123.253 713.503 122.709C713.503 122.165 713.316 121.734 712.942 121.417C712.579 121.088 712.092 120.924 711.48 120.924C710.879 120.924 710.386 121.094 710.001 121.434C709.615 121.763 709.423 122.188 709.423 122.709C709.423 123.23 709.61 123.655 709.984 123.984C710.358 124.313 710.868 124.477 711.514 124.477ZM721.25 118.901C722.927 118.901 724.162 119.235 724.956 119.904C725.76 120.573 726.163 121.468 726.163 122.59C726.163 123.315 725.981 123.978 725.619 124.579C725.256 125.168 724.701 125.644 723.953 126.007C723.216 126.358 722.304 126.534 721.216 126.534C720.377 126.534 719.55 126.426 718.734 126.211C717.929 125.984 717.243 125.667 716.677 125.259L717.765 123.151C718.218 123.491 718.739 123.757 719.329 123.95C719.918 124.131 720.524 124.222 721.148 124.222C721.839 124.222 722.383 124.086 722.78 123.814C723.176 123.542 723.375 123.162 723.375 122.675C723.375 122.165 723.165 121.78 722.746 121.519C722.338 121.258 721.624 121.128 720.604 121.128H717.561L718.173 114.43H725.432V116.64H720.468L720.281 118.901H721.25ZM741.632 126.33V120.856L738.895 125.446H737.773L735.104 120.839V126.33H732.707V117.184H735.478L738.402 122.471L741.513 117.184H743.995L744.029 126.33H741.632Z" fill="#707070"/>
<path d="M759.332 8.79289C758.942 8.40237 758.308 8.40237 757.918 8.79289L751.554 15.1569C751.163 15.5474 751.163 16.1805 751.554 16.5711C751.944 16.9616 752.578 16.9616 752.968 16.5711L758.625 10.9142L764.282 16.5711C764.672 16.9616 765.306 16.9616 765.696 16.5711C766.087 16.1805 766.087 15.5474 765.696 15.1569L759.332 8.79289ZM757.918 146.77C758.308 147.16 758.942 147.16 759.332 146.77L765.696 140.406C766.087 140.015 766.087 139.382 765.696 138.991C765.306 138.601 764.672 138.601 764.282 138.991L758.625 144.648L752.968 138.991C752.578 138.601 751.944 138.601 751.554 138.991C751.163 139.382 751.163 140.015 751.554 140.406L757.918 146.77ZM757.625 9.5L757.625 146.063L759.625 146.062L759.625 9.5L757.625 9.5Z" fill="#A3A3A3"/>
<line x1="148.529" y1="74.1307" x2="335.673" y2="74.1307" stroke="#DCDCDC" stroke-width="2"/>
<rect x="163.556" y="131.137" width="66.9346" height="4.09804" fill="#FFF3E5"/>
<rect x="163.556" y="68.3007" width="66.9346" height="4.09804" fill="#FFF3E5"/>
<rect x="256.444" y="68.3007" width="66.9346" height="4.09804" fill="#FFF3E5"/>
<rect x="256.444" y="131.137" width="66.9346" height="4.09804" fill="#FFF3E5"/>
<rect x="347.967" y="131.137" width="66.9346" height="4.09804" fill="#FFF3E5"/>
<path d="M429.688 131.812H472.66L472.438 133.594L471.25 135.375H429.688V131.812Z" fill="#FFF3E5"/>
<path d="M433.844 36.8125V131.812H472.438L475.406 96.1875L460.562 55.2188L465.312 36.8125H433.844Z" fill="#AAAAAA"/>
<rect x="169.02" y="88.7908" width="56.0065" height="42.3464" fill="#AAAAAA"/>
<rect x="169.02" y="25.9542" width="56.0065" height="42.3464" fill="#AAAAAA"/>
<rect x="261.908" y="25.9542" width="56.0065" height="42.3464" fill="#AAAAAA"/>
<rect x="261.908" y="88.7908" width="56.0065" height="42.3464" fill="#AAAAAA"/>
<rect x="353.431" y="42.3464" width="56.0065" height="88.7908" fill="#AAAAAA"/>
<path d="M147.822 31.4278C147.432 31.8183 147.432 32.4515 147.822 32.842L154.186 39.206C154.577 39.5965 155.21 39.5965 155.6 39.206C155.991 38.8154 155.991 38.1823 155.6 37.7917L149.944 32.1349L155.6 26.478C155.991 26.0875 155.991 25.4543 155.6 25.0638C155.21 24.6733 154.577 24.6733 154.186 25.0638L147.822 31.4278ZM802.191 32.8419C802.581 32.4514 802.581 31.8182 802.191 31.4277L795.827 25.0638C795.436 24.6732 794.803 24.6732 794.412 25.0638C794.022 25.4543 794.022 26.0875 794.412 26.478L800.069 32.1348L794.412 37.7917C794.022 38.1822 794.022 38.8154 794.412 39.2059C794.803 39.5964 795.436 39.5964 795.827 39.2059L802.191 32.8419ZM148.529 33.1349L801.484 33.1348L801.484 31.1348L148.529 31.1349L148.529 33.1349Z" fill="#A3A3A3"/>
</svg>
