<svg width="810" height="210" viewBox="0 0 810 210" fill="none" xmlns="http://www.w3.org/2000/svg">
<path d="M235.579 204C249.451 204 260.697 192.721 260.697 178.808C260.697 164.895 249.451 153.616 235.579 153.616C221.707 153.616 210.462 164.895 210.462 178.808C210.462 192.721 221.707 204 235.579 204Z" fill="#BABABB" stroke="#3D3D3D" stroke-width="11" stroke-miterlimit="10"/>
<path d="M56.9659 204C70.8379 204 82.0834 192.721 82.0834 178.808C82.0834 164.895 70.8379 153.616 56.9659 153.616C43.0939 153.616 31.8484 164.895 31.8484 178.808C31.8484 192.721 43.0939 204 56.9659 204Z" fill="#BABABB" stroke="#3D3D3D" stroke-width="11" stroke-miterlimit="10"/>
<path d="M696.5 205C703.404 205 709 199.404 709 192.5C709 185.596 703.404 180 696.5 180C689.596 180 684 185.596 684 192.5C684 199.404 689.596 205 696.5 205Z" fill="#BABABB" stroke="#3D3D3D" stroke-width="8" stroke-miterlimit="10"/>
<path d="M631.5 205C638.404 205 644 199.404 644 192.5C644 185.596 638.404 180 631.5 180C624.596 180 619 185.596 619 192.5C619 199.404 624.596 205 631.5 205Z" fill="#BABABB" stroke="#3D3D3D" stroke-width="8" stroke-miterlimit="10"/>
<path d="M566.5 205C573.404 205 579 199.404 579 192.5C579 185.596 573.404 180 566.5 180C559.596 180 554 185.596 554 192.5C554 199.404 559.596 205 566.5 205Z" fill="#BABABB" stroke="#3D3D3D" stroke-width="8" stroke-miterlimit="10"/>
<path d="M548 185C548 185 566 156.022 585 185H612.5C612.5 185 630.5 155.5 650 185H677.5C677.5 185 696.5 156.5 715.5 185H741.229H762H766.959H780.5H805.812C806.36 185.002 806.904 184.957 807.412 184.868C807.92 184.778 808.382 184.646 808.771 184.478C809.161 184.311 809.47 184.112 809.681 183.892C809.891 183.673 810 183.438 810 183.2L809.737 164.709C809.706 162.522 807.924 160.766 805.737 160.766H313.5C310.739 160.766 308.5 158.527 308.5 155.766V123C308.5 120.239 306.261 118 303.5 118H149C147.343 118 146 119.343 146 121V147.5C146 149.157 147.343 150.5 149 150.5H187.592C189.428 150.5 191.159 149.665 192.408 148.319C200.782 139.296 235.751 107.205 278.073 147.602C279.959 149.402 281 151.959 281 154.566V185" fill="#DCDCDC"/>
<path d="M199.298 185.339H100.335C100.335 185.339 102.55 138.687 56.9659 138.687C56.9659 138.687 22.3596 135.179 17.1315 180.991C16.9992 182.182 16.4353 183.283 15.5469 184.085C14.6586 184.887 13.5076 185.333 12.3126 185.339H6.11697C5.40641 185.339 4.72494 185.056 4.22249 184.552C3.72005 184.048 3.43777 183.365 3.43777 182.652L3.58662 162.685L5.80068 161.08L3.60522 159.214L3.94012 112.562C3.94012 112.562 7.38215 37.9196 21.4852 36.0536L124.876 34.1875L125.025 152.291C125.025 152.643 124.886 152.98 124.638 153.228C124.39 153.476 124.054 153.616 123.704 153.616H119.76C119.167 153.616 118.6 153.852 118.181 154.272C117.762 154.692 117.527 155.261 117.527 155.855V162.592C117.526 163.165 117.747 163.716 118.142 164.13C118.538 164.544 119.077 164.788 119.648 164.812H125.044H192.917C194.777 164.812 201.847 166.679 201.159 168.545" fill="#DEDDD9"/>
<path d="M53.0588 38.1621L130.923 36.1654L129.807 9.92847C129.583 4.79677 128.486 0.598113 127.295 0.299541C118.308 -1.79046 52.7798 38.1435 53.0588 38.1621Z" fill="#DEDDD9"/>
<path d="M14.7499 99.388C22.9736 99.6866 61.5987 100.265 93.2281 86.3255C93.8014 86.108 94.2987 85.7271 94.659 85.2298C95.0193 84.7325 95.2269 84.1404 95.2561 83.5264L96.9678 63.1862C96.9678 63.1862 101.991 46.7835 23.5876 51.9898C23.0759 51.9969 22.5769 52.1498 22.1486 52.4307C21.7203 52.7115 21.3805 53.1087 21.1689 53.576C19.5502 58.1852 14.7499 73.4869 13.2429 98.0444C13.2523 98.2324 13.299 98.4167 13.3802 98.5864C13.4614 98.7561 13.5754 98.9079 13.7157 99.033C13.856 99.158 14.0197 99.2538 14.1972 99.3148C14.3748 99.3757 14.5627 99.4006 14.7499 99.388V99.388Z" fill="#F8F8F8"/>
<path d="M138.7 159.214H189.419C190.07 159.214 190.695 159.474 191.155 159.936C191.616 160.398 191.875 161.024 191.875 161.678V190.322C191.875 190.98 191.614 191.611 191.15 192.077C190.686 192.542 190.057 192.804 189.4 192.804H139.816C138.83 192.804 137.883 192.41 137.185 191.711C136.487 191.011 136.095 190.061 136.095 189.071V161.883C136.095 161.185 136.368 160.514 136.855 160.015C137.342 159.517 138.004 159.229 138.7 159.214V159.214Z" fill="#707070"/>
<path d="M132.318 34.1875H124.876V138.687H132.318V34.1875Z" fill="#DEDDD9"/>
<path d="M76.5017 41.6517H72.7806V99.4999H76.5017V41.6517Z" fill="#DEDDD9"/>
<path d="M3.94009 163.879C5.48143 163.879 6.73092 162.209 6.73092 160.147C6.73092 158.086 5.48143 156.415 3.94009 156.415C2.39876 156.415 1.14926 158.086 1.14926 160.147C1.14926 162.209 2.39876 163.879 3.94009 163.879Z" fill="white" stroke="white" stroke-width="0.5" stroke-miterlimit="10"/>
<path d="M13.9872 47.25L5.80078 52.363C5.80078 52.363 7.66134 54.7143 15.3082 52.363" fill="#707070"/>
<path d="M6.73097 99.4999C6.73097 99.4999 2.07958 97.4659 1.1493 123.759C0.219027 150.052 3.94014 155.482 3.94014 155.482" fill="#DEDDD9"/>
<path d="M83.9439 138.202H119.294" stroke="white" stroke-width="0.25" stroke-miterlimit="10" stroke-linecap="round"/>
<path d="M96.9678 33.2546H127.667" stroke="white" stroke-width="0.25" stroke-miterlimit="10" stroke-linecap="round"/>
<path d="M13.2429 114.858V138.202" stroke="white" stroke-width="0.25" stroke-miterlimit="10" stroke-linecap="round"/>
<path d="M143.482 165.242V188.586" stroke="white" stroke-width="0.25" stroke-miterlimit="10" stroke-linecap="round"/>
<path d="M184.414 165.242V188.586" stroke="white" stroke-width="0.25" stroke-miterlimit="10" stroke-linecap="round"/>
<path d="M95.1073 98.063V114.428" stroke="white" stroke-width="0.25" stroke-miterlimit="10" stroke-linecap="round"/>
<path d="M199.298 168.545C199.298 168.545 208.601 140.554 235.579 140.554C271.86 140.554 273.72 179.741 273.72 179.741" stroke="#3D3D3D" stroke-width="3" stroke-miterlimit="10" stroke-linecap="round"/>
<path d="M119.295 189.071C125.46 189.071 130.458 186.147 130.458 182.54C130.458 178.933 125.46 176.009 119.295 176.009C113.129 176.009 108.131 178.933 108.131 182.54C108.131 186.147 113.129 189.071 119.295 189.071Z" fill="#DEDDD9"/>
<path d="M793.19 40.1166C793.11 39.0057 793.946 38.0401 795.056 37.9597V37.9597C796.154 37.8803 797.113 38.6959 797.211 39.7922L798.945 59.2682L807.439 154.636C807.587 156.292 806.349 157.748 804.69 157.868V157.868C803.052 157.986 801.627 156.754 801.509 155.115L793.19 40.1166Z" fill="#C4C4C4"/>
<path d="M794.5 114L788.5 156.5" stroke="#DCDCDC"/>
<path d="M284.5 191.5H540.5" stroke="#C4C4C4" stroke-width="4" stroke-linecap="round"/>
<path d="M589 191H610" stroke="#C4C4C4" stroke-width="4" stroke-linecap="round"/>
<path d="M653 191H674" stroke="#C4C4C4" stroke-width="4" stroke-linecap="round"/>
<path d="M718 191H808" stroke="#C4C4C4" stroke-width="4" stroke-linecap="round"/>
<path d="M150 77C150 74.7909 151.791 73 154 73H300C302.209 73 304 74.7909 304 77V118H150V77Z" fill="#C4C4C4"/>
<line x1="314" y1="162" x2="801" y2="162" stroke="#707070" stroke-width="2"/>
<rect x="322" y="167" width="14" height="12" rx="2" fill="#C4C4C4"/>
<rect x="420" y="167" width="14" height="12" rx="2" fill="#C4C4C4"/>
<rect x="518" y="167" width="14" height="12" rx="2" fill="#C4C4C4"/>
<rect x="657" y="167" width="14" height="12" rx="2" fill="#C4C4C4"/>
<rect x="755" y="167" width="14" height="12" rx="2" fill="#C4C4C4"/>
</svg>
