<svg width="39" height="56" viewBox="0 0 39 56" fill="none" xmlns="http://www.w3.org/2000/svg">
<g clip-path="url(#clip0_3_2)">
<path d="M18.4048 0.0285984C18.4055 0.0241109 18.4048 0.0194981 18.4026 0.0154936C18.4005 0.0114892 18.397 0.00832301 18.3929 0.00649873C18.3887 0.00467444 18.3841 0.00429681 18.3797 0.00542589C18.3753 0.00655497 18.3714 0.00912593 18.3687 0.0127298C17.3779 1.06912 -2.38846 19.1592 0.238624 44.6441C0.375476 46.0423 0.701995 47.4152 1.20911 48.7245C2.02612 50.8079 3.59696 53.7843 6.40008 55.9538C6.41388 55.964 6.42991 55.9706 6.44682 55.9732C6.46373 55.9758 6.48102 55.9743 6.4972 55.9687C6.51339 55.9631 6.52799 55.9537 6.53977 55.9412C6.55154 55.9288 6.56015 55.9136 6.56484 55.8971L10.1331 42.7784C10.1394 42.7541 10.1509 42.7315 10.1668 42.7121C10.1828 42.6927 10.2027 42.6771 10.2253 42.6663C10.2479 42.6555 10.2725 42.6498 10.2975 42.6496C10.3225 42.6494 10.3473 42.6546 10.37 42.665C11.6407 43.2431 19.382 46.4485 27.6718 42.665C27.6952 42.6534 27.7209 42.6471 27.747 42.6465C27.7731 42.6459 27.799 42.6511 27.8229 42.6617C27.8468 42.6723 27.8681 42.688 27.8853 42.7078C27.9025 42.7276 27.9151 42.7509 27.9223 42.7761L31.486 55.9016C31.4906 55.9198 31.4991 55.9367 31.5109 55.9511C31.5227 55.9656 31.5376 55.9772 31.5544 55.9852C31.5712 55.9932 31.5896 55.9974 31.6082 55.9975C31.6268 55.9975 31.6452 55.9934 31.6621 55.9855C32.215 55.7316 34.3343 54.5982 36.3249 51.4517C38.1721 48.4579 39.1007 44.984 38.9949 41.4636C38.8391 33.8648 36.5122 16.9807 20.9258 0.00366211C20.9258 0.00366211 20.8964 0.00366211 20.8964 0.0172637L21.1492 12.0161C21.1543 12.3685 21.2696 12.7103 21.4787 12.9932C22.6072 14.5324 26.3921 20.2474 26.1912 27.692C26.1743 29.5534 25.5227 31.3529 24.3451 32.7903C23.3114 34.0076 21.736 35.0912 19.4475 34.9439C18.3126 34.9495 17.1937 34.6755 16.1888 34.1459C15.1839 33.6163 14.3235 32.8473 13.6832 31.9062C12.8101 30.5657 12.371 28.9868 12.4261 27.3859C12.4645 24.6316 13.3154 19.5877 17.7931 13.043C18.0021 12.741 18.1183 12.3839 18.1272 12.0161C18.1791 9.69253 18.3867 0.808423 18.4048 0.0285984Z" fill="#2369D9"/>
</g>
<defs>
<clipPath id="clip0_3_2">
<rect width="39" height="56" fill="white"/>
</clipPath>
</defs>
</svg>
