<svg width="64" height="64" viewBox="0 0 64 64" fill="none" xmlns="http://www.w3.org/2000/svg">
<path d="M31.2918 0.908899C31.2926 0.903952 31.2918 0.898867 31.2894 0.894452C31.287 0.890038 31.2833 0.886547 31.2787 0.884536C31.2741 0.882525 31.269 0.882108 31.2642 0.883353C31.2593 0.884598 31.255 0.887432 31.252 0.891405C30.1597 2.05601 8.36863 21.9992 11.2648 50.0945C11.4157 51.636 11.7757 53.1495 12.3347 54.593C13.2354 56.8897 14.9672 60.1711 18.0574 62.5628C18.0726 62.574 18.0903 62.5813 18.1089 62.5842C18.1276 62.587 18.1466 62.5853 18.1645 62.5792C18.1823 62.573 18.1984 62.5626 18.2114 62.5489C18.2244 62.5352 18.2339 62.5185 18.2391 62.5003L22.1728 48.0377C22.1797 48.0109 22.1925 47.986 22.21 47.9647C22.2276 47.9433 22.2496 47.9261 22.2745 47.9142C22.2994 47.9023 22.3265 47.896 22.3541 47.8957C22.3817 47.8955 22.409 47.9013 22.434 47.9128C23.8349 48.5501 32.3692 52.0838 41.5081 47.9128C41.5339 47.8999 41.5622 47.8929 41.591 47.8923C41.6198 47.8917 41.6483 47.8974 41.6747 47.9091C41.701 47.9208 41.7245 47.9381 41.7434 47.9599C41.7624 47.9817 41.7763 48.0074 41.7843 48.0352L45.713 62.5053C45.718 62.5252 45.7274 62.5439 45.7404 62.5598C45.7535 62.5757 45.7698 62.5886 45.7884 62.5974C45.8069 62.6062 45.8272 62.6108 45.8477 62.6109C45.8682 62.611 45.8885 62.6065 45.9071 62.5977C46.5167 62.3178 48.853 61.0683 51.0476 57.5995C53.0839 54.299 54.1077 50.4693 53.991 46.5882C53.8194 38.2111 51.2541 19.5975 34.071 0.881409C34.071 0.881409 34.0387 0.881409 34.0387 0.896404L34.3174 14.1244C34.323 14.5128 34.4501 14.8896 34.6806 15.2015C35.9247 16.8984 40.0973 23.1988 39.8759 31.4059C39.8572 33.4581 39.1389 35.4418 37.8406 37.0265C36.701 38.3685 34.9643 39.5631 32.4413 39.4007C31.1902 39.4069 29.9567 39.1049 28.8488 38.521C27.7409 37.9372 26.7925 37.0894 26.0866 36.0518C25.1241 34.5741 24.64 32.8335 24.7007 31.0686C24.743 28.0321 25.6811 22.4715 30.6175 15.2565C30.8479 14.9234 30.976 14.5298 30.9858 14.1244C31.043 11.5627 31.2719 1.7686 31.2918 0.908899Z" fill="#2369D9"/>
</svg>
