<svg width="810" height="321" viewBox="0 0 810 321" fill="none" xmlns="http://www.w3.org/2000/svg">
<path d="M235.579 273C249.451 273 260.697 261.721 260.697 247.808C260.697 233.895 249.451 222.616 235.579 222.616C221.707 222.616 210.462 233.895 210.462 247.808C210.462 261.721 221.707 273 235.579 273Z" fill="#BABABB" stroke="#3D3D3D" stroke-width="11" stroke-miterlimit="10"/>
<path d="M56.9659 273C70.8379 273 82.0834 261.721 82.0834 247.808C82.0834 233.895 70.8379 222.616 56.9659 222.616C43.0939 222.616 31.8484 233.895 31.8484 247.808C31.8484 261.721 43.0939 273 56.9659 273Z" fill="#BABABB" stroke="#3D3D3D" stroke-width="11" stroke-miterlimit="10"/>
<path d="M696.5 274C703.404 274 709 268.404 709 261.5C709 254.596 703.404 249 696.5 249C689.596 249 684 254.596 684 261.5C684 268.404 689.596 274 696.5 274Z" fill="#BABABB" stroke="#3D3D3D" stroke-width="8" stroke-miterlimit="10"/>
<path d="M631.5 274C638.404 274 644 268.404 644 261.5C644 254.596 638.404 249 631.5 249C624.596 249 619 254.596 619 261.5C619 268.404 624.596 274 631.5 274Z" fill="#BABABB" stroke="#3D3D3D" stroke-width="8" stroke-miterlimit="10"/>
<path d="M566.5 274C573.404 274 579 268.404 579 261.5C579 254.596 573.404 249 566.5 249C559.596 249 554 254.596 554 261.5C554 268.404 559.596 274 566.5 274Z" fill="#BABABB" stroke="#3D3D3D" stroke-width="8" stroke-miterlimit="10"/>
<path d="M548 254C548 254 566 225.022 585 254H612.5C612.5 254 630.5 224.5 650 254H677.5C677.5 254 696.5 225.5 715.5 254H741.229H762H766.959H780.5H805.812C806.36 254.002 806.904 253.957 807.412 253.868C807.92 253.778 808.382 253.646 808.771 253.478C809.161 253.311 809.47 253.112 809.681 252.892C809.891 252.673 810 252.438 810 252.2L809.737 233.709C809.706 231.522 807.924 229.766 805.737 229.766H313.5C310.739 229.766 308.5 227.527 308.5 224.766V192C308.5 189.239 306.261 187 303.5 187H149C147.343 187 146 188.343 146 190V216.5C146 218.157 147.343 219.5 149 219.5H187.592C189.428 219.5 191.159 218.665 192.408 217.319C200.782 208.296 235.751 176.205 278.073 216.602C279.959 218.402 281 220.959 281 223.566V254" fill="#DCDCDC"/>
<path d="M199.298 254.339H100.335C100.335 254.339 102.55 207.687 56.9659 207.687C56.9659 207.687 22.3596 204.179 17.1315 249.991C16.9992 251.182 16.4353 252.283 15.5469 253.085C14.6586 253.887 13.5076 254.333 12.3126 254.339H6.11697C5.40641 254.339 4.72494 254.056 4.22249 253.552C3.72005 253.048 3.43777 252.365 3.43777 251.652L3.58662 231.685L5.80068 230.08L3.60522 228.214L3.94012 181.562C3.94012 181.562 7.38215 106.92 21.4852 105.054L124.876 103.188L125.025 221.291C125.025 221.643 124.886 221.98 124.638 222.228C124.39 222.476 124.054 222.616 123.704 222.616H119.76C119.167 222.616 118.6 222.852 118.181 223.272C117.762 223.692 117.527 224.261 117.527 224.855V231.592C117.526 232.165 117.747 232.716 118.142 233.13C118.538 233.544 119.077 233.788 119.648 233.812H125.044H192.917C194.777 233.812 201.847 235.679 201.159 237.545" fill="#DEDDD9"/>
<path d="M53.0588 107.162L130.923 105.165L129.807 78.9285C129.583 73.7968 128.486 69.5981 127.295 69.2995C118.308 67.2095 52.7798 107.143 53.0588 107.162Z" fill="#DEDDD9"/>
<path d="M14.7499 168.388C22.9736 168.687 61.5987 169.265 93.2281 155.326C93.8014 155.108 94.2987 154.727 94.659 154.23C95.0193 153.733 95.2269 153.14 95.2561 152.526L96.9678 132.186C96.9678 132.186 101.991 115.783 23.5876 120.99C23.0759 120.997 22.5769 121.15 22.1486 121.431C21.7203 121.712 21.3805 122.109 21.1689 122.576C19.5502 127.185 14.7499 142.487 13.2429 167.044C13.2523 167.232 13.299 167.417 13.3802 167.586C13.4614 167.756 13.5754 167.908 13.7157 168.033C13.856 168.158 14.0197 168.254 14.1972 168.315C14.3748 168.376 14.5627 168.401 14.7499 168.388Z" fill="#F8F8F8"/>
<path d="M138.7 228.214H189.419C190.07 228.214 190.695 228.474 191.155 228.936C191.616 229.398 191.875 230.024 191.875 230.678V259.322C191.875 259.98 191.614 260.611 191.15 261.077C190.686 261.542 190.057 261.804 189.4 261.804H139.816C138.83 261.804 137.883 261.41 137.185 260.711C136.487 260.011 136.095 259.061 136.095 258.071V230.883C136.095 230.185 136.368 229.514 136.855 229.015C137.342 228.517 138.004 228.229 138.7 228.214Z" fill="#707070"/>
<path d="M132.318 103.188H124.876V207.687H132.318V103.188Z" fill="#DEDDD9"/>
<path d="M76.5017 110.652H72.7806V168.5H76.5017V110.652Z" fill="#DEDDD9"/>
<path d="M3.94009 232.879C5.48143 232.879 6.73092 231.209 6.73092 229.147C6.73092 227.086 5.48143 225.415 3.94009 225.415C2.39876 225.415 1.14926 227.086 1.14926 229.147C1.14926 231.209 2.39876 232.879 3.94009 232.879Z" fill="white" stroke="white" stroke-width="0.5" stroke-miterlimit="10"/>
<path d="M13.9872 116.25L5.80078 121.363C5.80078 121.363 7.66134 123.714 15.3082 121.363" fill="#707070"/>
<path d="M6.73097 168.5C6.73097 168.5 2.07958 166.466 1.1493 192.759C0.219027 219.052 3.94014 224.482 3.94014 224.482" fill="#DEDDD9"/>
<path d="M83.9439 207.202H119.294" stroke="white" stroke-width="0.25" stroke-miterlimit="10" stroke-linecap="round"/>
<path d="M96.9678 102.255H127.667" stroke="white" stroke-width="0.25" stroke-miterlimit="10" stroke-linecap="round"/>
<path d="M13.2429 183.858V207.202" stroke="white" stroke-width="0.25" stroke-miterlimit="10" stroke-linecap="round"/>
<path d="M143.482 234.242V257.586" stroke="white" stroke-width="0.25" stroke-miterlimit="10" stroke-linecap="round"/>
<path d="M184.414 234.242V257.586" stroke="white" stroke-width="0.25" stroke-miterlimit="10" stroke-linecap="round"/>
<path d="M95.1073 167.063V183.428" stroke="white" stroke-width="0.25" stroke-miterlimit="10" stroke-linecap="round"/>
<path d="M199.298 237.545C199.298 237.545 208.601 209.554 235.579 209.554C271.86 209.554 273.72 248.741 273.72 248.741" stroke="#3D3D3D" stroke-width="3" stroke-miterlimit="10" stroke-linecap="round"/>
<path d="M119.295 258.071C125.46 258.071 130.458 255.147 130.458 251.54C130.458 247.933 125.46 245.009 119.295 245.009C113.129 245.009 108.131 247.933 108.131 251.54C108.131 255.147 113.129 258.071 119.295 258.071Z" fill="#DEDDD9"/>
<path d="M793.19 109.117C793.11 108.006 793.946 107.04 795.056 106.96C796.154 106.88 797.113 107.696 797.211 108.792L798.945 128.268L807.439 223.636C807.587 225.292 806.349 226.748 804.69 226.868C803.052 226.986 801.627 225.754 801.509 224.115L793.19 109.117Z" fill="#C4C4C4"/>
<path d="M794.5 183L788.5 225.5" stroke="#DCDCDC"/>
<path d="M284.5 260.5H540.5" stroke="#C4C4C4" stroke-width="4" stroke-linecap="round"/>
<path d="M589 260H610" stroke="#C4C4C4" stroke-width="4" stroke-linecap="round"/>
<path d="M653 260H674" stroke="#C4C4C4" stroke-width="4" stroke-linecap="round"/>
<path d="M718 260H808" stroke="#C4C4C4" stroke-width="4" stroke-linecap="round"/>
<path d="M150 146C150 143.791 151.791 142 154 142H300C302.209 142 304 143.791 304 146V187H150V146Z" fill="#C4C4C4"/>
<line x1="314" y1="231" x2="801" y2="231" stroke="#707070" stroke-width="2"/>
<rect x="322" y="236" width="14" height="12" rx="2" fill="#C4C4C4"/>
<rect x="420" y="236" width="14" height="12" rx="2" fill="#C4C4C4"/>
<rect x="518" y="236" width="14" height="12" rx="2" fill="#C4C4C4"/>
<rect x="657" y="236" width="14" height="12" rx="2" fill="#C4C4C4"/>
<rect x="755" y="236" width="14" height="12" rx="2" fill="#C4C4C4"/>
<path d="M456.415 178.124L431.968 187.601L444.189 219.126L410.306 232.261L398.085 200.737L317.237 232.078L308.176 208.703L342.033 86.053L378.489 71.9203L347.867 187.643L388.184 172.014L377.293 143.921L410.104 131.201L420.995 159.294L445.442 149.817L456.415 178.124Z" fill="#2369D9"/>
<path d="M745.847 176.816L721.4 186.293L733.621 217.817L699.738 230.953L687.517 199.428L606.669 230.77L597.608 207.395L631.465 84.7448L667.921 70.6121L637.299 186.334L677.616 170.705L666.725 142.612L699.536 129.893L710.426 157.986L734.874 148.509L745.847 176.816Z" fill="#2369D9"/>
<path d="M595.496 202.657C587.963 213.666 578.531 221.611 567.201 226.493C555.872 231.374 543.394 232.776 529.767 230.697C516.1 228.405 502.117 222.367 487.817 212.582C473.518 202.797 462.888 191.993 455.929 180.171C448.929 168.135 445.653 155.953 446.1 143.625C446.547 131.297 450.537 119.628 458.07 108.619C465.604 97.6094 475.035 89.664 486.365 84.7825C497.694 79.901 510.193 78.6062 523.86 80.898C537.487 82.9767 551.45 88.9085 565.749 98.6933C580.049 108.478 590.698 119.388 597.697 131.424C604.657 143.246 607.913 155.322 607.466 167.65C607.019 179.979 603.029 191.647 595.496 202.657ZM569.491 184.862C575.033 176.763 575.883 168.055 572.04 158.737C568.284 149.292 559.13 139.591 544.578 129.633C530.025 119.675 517.667 114.656 507.503 114.575C497.426 114.368 489.617 118.314 484.075 126.413C478.62 134.385 477.77 143.094 481.526 152.538C485.369 161.856 494.566 171.494 509.119 181.452C523.671 191.41 535.986 196.493 546.063 196.7C556.227 196.78 564.036 192.834 569.491 184.862Z" fill="#2369D9"/>
</svg>
