<svg width="53" height="23" viewBox="0 0 53 23" fill="none" xmlns="http://www.w3.org/2000/svg">
<path d="M16.8445 16.1163H32.4439L32.4616 18.4403L52.1418 18.5659V1.35547H16.8445V16.1163Z" stroke="#2369D9" stroke-width="1.5" stroke-linejoin="round"/>
<path d="M7.63925 22.0205C9.67282 22.0205 11.3214 20.3895 11.3214 18.3774C11.3214 16.3654 9.67282 14.7344 7.63925 14.7344C5.60568 14.7344 3.95715 16.3654 3.95715 18.3774C3.95715 20.3895 5.60568 22.0205 7.63925 22.0205Z" stroke="#2369D9" stroke-width="1.5" stroke-miterlimit="10"/>
<path d="M46.3012 22.0834C48.3348 22.0834 49.9833 20.4523 49.9833 18.4403C49.9833 16.4283 48.3348 14.7972 46.3012 14.7972C44.2677 14.7972 42.6191 16.4283 42.6191 18.4403C42.6191 20.4523 44.2677 22.0834 46.3012 22.0834Z" fill="white" stroke="#2369D9" stroke-width="1.5" stroke-miterlimit="10"/>
<path d="M25.4149 22.0205C27.4484 22.0205 29.097 20.3895 29.097 18.3774C29.097 16.3654 27.4484 14.7344 25.4149 14.7344C23.3813 14.7344 21.7328 16.3654 21.7328 18.3774C21.7328 20.3895 23.3813 22.0205 25.4149 22.0205Z" fill="white" stroke="#2369D9" stroke-width="1.5" stroke-miterlimit="10"/>
<path d="M11.3213 18.3775H21.7327" stroke="#2369D9" stroke-width="1.5" stroke-miterlimit="10"/>
<path d="M3.95712 18.3775H1.92562C1.68013 18.3775 1.4447 18.281 1.27112 18.1092C1.09753 17.9375 1.00002 17.7046 1.00002 17.4617V10.2245C0.998348 9.74499 1.13013 9.27429 1.38092 8.86398L4.96017 3.05765C5.13843 2.76795 5.38905 2.52853 5.68792 2.36242C5.98679 2.19631 6.32383 2.1091 6.66663 2.10919H12.7319C13.0421 2.10919 13.3395 2.23109 13.5588 2.44807C13.7781 2.66505 13.9013 2.95933 13.9013 3.26619V18.3775" stroke="#2369D9" stroke-width="1.5" stroke-miterlimit="10"/>
<path d="M4.40149 9.521L7.45001 4.42194H11.3213V9.521H4.40149Z" stroke="#2369D9" stroke-width="1.5" stroke-linejoin="round"/>
<path d="M35.7628 3.99353H34.1122V13.5409H35.7628V3.99353Z" stroke="#2369D9" stroke-width="0.5" stroke-linecap="round" stroke-linejoin="round"/>
<path d="M32.0033 9.96069H34.1122L35.7628 8.7673H37.9683" stroke="#2369D9" stroke-width="0.5" stroke-linecap="round" stroke-linejoin="round"/>
<path d="M34.2391 10.1491V13.4304H35.651V9.01978L34.2391 10.1491Z" fill="#2369D9" stroke="#2369D9" stroke-width="0.5" stroke-linecap="round" stroke-linejoin="round"/>
<path d="M32.9823 8.76726L33.3759 8.88535C33.3543 8.98471 33.3109 9.07819 33.2489 9.1592C33.1933 9.23115 33.1204 9.28816 33.0368 9.32502C32.935 9.366 32.8255 9.38526 32.7156 9.38155C32.5851 9.3857 32.4552 9.36214 32.3347 9.31246C32.2262 9.2599 32.1356 9.17689 32.0744 9.07378C31.9971 8.94026 31.9592 8.78789 31.9652 8.6341C31.9586 8.53448 31.9723 8.43456 32.0055 8.34026C32.0386 8.24597 32.0906 8.15921 32.1582 8.08513C32.2306 8.01822 32.316 7.96665 32.4092 7.93359C32.5025 7.90054 32.6015 7.8867 32.7004 7.89293C32.8528 7.88433 33.0042 7.92297 33.1333 8.00348C33.2457 8.0885 33.3276 8.20694 33.367 8.3414L32.9696 8.42808C32.9604 8.39419 32.9458 8.36195 32.9264 8.33261C32.9025 8.29915 32.8707 8.27197 32.8337 8.25347C32.7729 8.22442 32.7035 8.21795 32.6383 8.23524C32.573 8.25254 32.5162 8.29244 32.4782 8.34768C32.4299 8.43383 32.4083 8.53212 32.416 8.63033C32.4042 8.74462 32.4301 8.8596 32.4896 8.95821C32.5147 8.98768 32.5463 9.01106 32.582 9.02652C32.6176 9.04199 32.6564 9.04913 32.6953 9.0474C32.7312 9.04983 32.7671 9.04471 32.8008 9.03237C32.8345 9.02002 32.8652 9.00074 32.8908 8.97579C32.9397 8.91566 32.9713 8.84363 32.9823 8.76726Z" fill="#2369D9"/>
<path d="M31.6097 7.85791C31.6089 7.83053 31.6139 7.8033 31.6244 7.77797C31.6349 7.75263 31.6507 7.72975 31.6706 7.7108C31.6927 7.69087 31.7185 7.67549 31.7467 7.66556C31.7748 7.65563 31.8046 7.65135 31.8344 7.65296C31.8677 7.65058 31.901 7.65543 31.9322 7.66715C31.9633 7.67888 31.9915 7.69721 32.0147 7.72086C32.047 7.7583 32.0642 7.8062 32.063 7.8554C32.0639 7.88297 32.0589 7.91042 32.0484 7.93597C32.0379 7.96153 32.0221 7.98462 32.002 8.00376C31.9797 8.024 31.9534 8.03956 31.9248 8.0495C31.8963 8.05944 31.8659 8.06356 31.8357 8.0616C31.78 8.06396 31.7253 8.04707 31.6808 8.01382C31.6578 7.99484 31.6395 7.97095 31.6272 7.94395C31.6149 7.91694 31.6089 7.88753 31.6097 7.85791ZM31.7608 7.85791C31.7587 7.88519 31.7663 7.91233 31.7824 7.93461C31.7885 7.94276 31.7966 7.94932 31.8059 7.9537C31.8152 7.95808 31.8254 7.96016 31.8357 7.95975C31.846 7.9601 31.8563 7.95814 31.8658 7.954C31.8752 7.94986 31.8836 7.94366 31.8903 7.93586C31.9058 7.91244 31.9129 7.88456 31.9106 7.85665C31.9132 7.82972 31.9055 7.8028 31.889 7.78121C31.8831 7.77307 31.8753 7.76651 31.8662 7.76212C31.8571 7.75773 31.8471 7.75565 31.837 7.75607C31.8265 7.75567 31.8161 7.75774 31.8066 7.76212C31.7971 7.76649 31.7888 7.77303 31.7824 7.78121C31.7664 7.80354 31.7588 7.83064 31.7608 7.85791Z" fill="#2369D9"/>
</svg>
