<svg width="20" height="26" viewBox="0 0 20 26" fill="none" xmlns="http://www.w3.org/2000/svg">
<path d="M18.2777 1.33008H1V22.8235H18.2777V1.33008Z" fill="white" stroke="#2369D7" stroke-width="1.5" stroke-linecap="round" stroke-linejoin="round"/>
<path d="M3.86987 5.22754H15.5766" stroke="#2369D7" stroke-width="1.5" stroke-linecap="round" stroke-linejoin="round"/>
<path d="M3.86987 8.34619H15.5766" stroke="#2369D7" stroke-width="1.5" stroke-linecap="round" stroke-linejoin="round"/>
<path d="M3.86987 11.4648H15.5766" stroke="#2369D7" stroke-width="1.5" stroke-linecap="round" stroke-linejoin="round"/>
<path d="M3.86987 14.5835H15.5766" stroke="#2369D7" stroke-width="1.5" stroke-linecap="round" stroke-linejoin="round"/>
<path d="M11.4205 24.2218L12.769 20.4601L14.6772 21.4193L13.3708 25.2973L12.6654 24.2606L11.4205 24.2218Z" fill="white" stroke="#2369D7" stroke-linecap="round" stroke-linejoin="round"/>
<path d="M14.1799 22.8386L14.9267 24.4831L15.6422 23.6124L16.8356 23.5913L15.7467 21.0602L14.6704 21.286" fill="white"/>
<path d="M14.1799 22.8386L14.9267 24.4831L15.6422 23.6124L16.8356 23.5913L15.7467 21.0602L14.6704 21.286" stroke="#2369D7" stroke-linecap="round" stroke-linejoin="round"/>
<path d="M16.0696 21.6923L16.1842 21.6712C16.2663 21.6559 16.3391 21.6086 16.3865 21.5397C16.4339 21.4708 16.452 21.386 16.437 21.3038L16.3848 21.013C16.374 20.9543 16.3802 20.8939 16.4026 20.8386C16.425 20.7834 16.4627 20.7357 16.5112 20.7011L16.7522 20.5325C16.8207 20.4839 16.8671 20.41 16.8811 20.3272C16.8952 20.2444 16.8758 20.1594 16.8272 20.0909L16.7514 19.9846C16.7148 19.9323 16.6951 19.8699 16.6951 19.806C16.6951 19.742 16.7148 19.6797 16.7514 19.6273L16.8289 19.5152C16.8522 19.4817 16.8687 19.4439 16.8774 19.404C16.8861 19.3641 16.8868 19.3229 16.8795 19.2827C16.8722 19.2425 16.8571 19.2042 16.835 19.1699C16.8128 19.1356 16.7841 19.106 16.7505 19.0828L16.491 18.9041C16.4427 18.8707 16.4048 18.8243 16.3819 18.7703C16.3589 18.7163 16.3517 18.6569 16.3612 18.599L16.4109 18.2922C16.4176 18.2514 16.4163 18.2096 16.4069 18.1694C16.3975 18.1291 16.3802 18.0911 16.3561 18.0575C16.332 18.0239 16.3015 17.9954 16.2663 17.9736C16.2312 17.9518 16.1921 17.9372 16.1513 17.9306L16.0342 17.912C15.9703 17.9016 15.9113 17.8717 15.8651 17.8265C15.819 17.7812 15.7879 17.7228 15.7763 17.6592L15.756 17.5437C15.7407 17.4615 15.6934 17.3888 15.6245 17.3414C15.5556 17.294 15.4708 17.2758 15.3886 17.2908L15.0995 17.3431C15.0402 17.3539 14.979 17.3476 14.9232 17.3249C14.8674 17.3022 14.8192 17.2641 14.7843 17.215L14.6157 16.9756C14.5669 16.9072 14.493 16.861 14.4102 16.8471C14.3274 16.8332 14.2425 16.8527 14.1741 16.9014L14.0679 16.9764C14.0153 17.013 13.9528 17.0326 13.8888 17.0326C13.8247 17.0326 13.7622 17.013 13.7097 16.9764L13.5984 16.8989C13.5305 16.852 13.4468 16.8339 13.3656 16.8486C13.2844 16.8633 13.2123 16.9095 13.1652 16.9773L12.9865 17.236C12.9532 17.2843 12.9068 17.3221 12.8528 17.3451C12.7988 17.3681 12.7394 17.3753 12.6814 17.3658L12.3746 17.3161C12.2922 17.3027 12.2078 17.3226 12.14 17.3715C12.0722 17.4203 12.0265 17.4941 12.0131 17.5766L11.9945 17.6912C11.9842 17.7552 11.9544 17.8145 11.9091 17.861C11.8639 17.9074 11.8054 17.9388 11.7417 17.9508L11.6287 17.9719C11.5466 17.9872 11.4738 18.0345 11.4264 18.1034C11.3791 18.1723 11.3609 18.2571 11.3759 18.3394L11.429 18.6327C11.4394 18.6906 11.4331 18.7503 11.4109 18.8047C11.3886 18.8592 11.3514 18.9062 11.3034 18.9403L11.0607 19.1089C11.0268 19.1329 10.998 19.1634 10.9759 19.1985C10.9538 19.2337 10.9388 19.2728 10.9318 19.3138C10.9249 19.3547 10.9261 19.3966 10.9353 19.4371C10.9445 19.4776 10.9616 19.5159 10.9857 19.5497L11.0607 19.6551C11.0978 19.7078 11.1177 19.7706 11.1177 19.835C11.1177 19.8995 11.0978 19.9623 11.0607 20.015L10.984 20.1254C10.9607 20.159 10.9442 20.1968 10.9355 20.2368C10.9268 20.2768 10.9261 20.318 10.9333 20.3583C10.9406 20.3985 10.9558 20.4369 10.9779 20.4713C11 20.5057 11.0288 20.5354 11.0624 20.5586L11.3152 20.7357C11.3644 20.7697 11.4029 20.817 11.4263 20.872C11.4497 20.9271 11.4571 20.9876 11.4475 21.0467L11.3987 21.3501C11.3919 21.3909 11.3933 21.4325 11.4027 21.4727C11.4121 21.5129 11.4294 21.5509 11.4535 21.5844C11.4776 21.6179 11.5081 21.6464 11.5433 21.6681C11.5784 21.6898 11.6175 21.7043 11.6582 21.7109L11.7762 21.7302C11.8392 21.7414 11.8973 21.7716 11.9425 21.8168C11.9877 21.8621 12.018 21.9201 12.0291 21.9831L12.0502 22.0994C12.0657 22.1815 12.1131 22.2541 12.1819 22.3015C12.2507 22.3488 12.3354 22.3671 12.4176 22.3523L12.7092 22.2992C12.7677 22.2885 12.8281 22.2947 12.8831 22.3171C12.9382 22.3395 12.9858 22.3772 13.0202 22.4256L13.1888 22.6667C13.2374 22.7352 13.3113 22.7815 13.3941 22.7956C13.4769 22.8097 13.5619 22.7903 13.6304 22.7417L13.7375 22.6658C13.7896 22.6291 13.8519 22.6093 13.9157 22.6093C13.9796 22.6093 14.0418 22.6291 14.094 22.6658L14.2061 22.7434C14.2397 22.7667 14.2776 22.7831 14.3176 22.7917C14.3576 22.8004 14.3989 22.801 14.4391 22.7937C14.4794 22.7863 14.5178 22.7711 14.5521 22.7488C14.5865 22.7266 14.6161 22.6978 14.6393 22.6642L14.818 22.4062C14.8515 22.3579 14.898 22.32 14.9521 22.297C15.0063 22.2741 15.0659 22.2669 15.1239 22.2764L15.4299 22.3262C15.5123 22.3395 15.5967 22.3196 15.6645 22.2708C15.7323 22.2219 15.778 22.1482 15.7914 22.0657L15.81 21.9494C15.8209 21.8848 15.8519 21.8252 15.8984 21.7791C15.945 21.733 16.0048 21.7027 16.0696 21.6923Z" fill="white" stroke="#2369D7" stroke-linecap="round" stroke-linejoin="round"/>
<path d="M13.0488 20.2207L13.7324 20.8537C13.753 20.8727 13.7777 20.8869 13.8046 20.895C13.8315 20.9032 13.8599 20.9052 13.8876 20.9009C13.9154 20.8967 13.9419 20.8862 13.965 20.8702C13.9882 20.8543 14.0075 20.8334 14.0214 20.809L15.225 18.7119" fill="white"/>
<path d="M13.0488 20.2207L13.7324 20.8537C13.753 20.8727 13.7777 20.8869 13.8046 20.895C13.8315 20.9032 13.8599 20.9052 13.8876 20.9009C13.9154 20.8967 13.9419 20.8862 13.965 20.8702C13.9882 20.8543 14.0075 20.8334 14.0214 20.809L15.225 18.7119" stroke="#2369D7" stroke-linecap="round" stroke-linejoin="round"/>
</svg>
