<svg width="25" height="21" viewBox="0 0 25 21" fill="none" xmlns="http://www.w3.org/2000/svg">
<path d="M6.94446 15.3661C6.83907 15.4526 6.70642 15.4982 6.57059 15.4945C6.43475 15.4908 6.30474 15.438 6.20415 15.3458C6.10356 15.2536 6.03906 15.1281 6.02237 14.9919C6.00568 14.8558 6.03789 14.7182 6.11316 14.604" stroke="#2369D7" stroke-width="1.5" stroke-linecap="round" stroke-linejoin="round"/>
<path d="M2.1697 17.1678C2.1697 17.1678 2.44485 17.2047 1.26208 19.0322C1.23943 19.0672 1.22646 19.1077 1.2245 19.1495C1.22255 19.1913 1.23168 19.2328 1.25095 19.2698C1.27022 19.3069 1.29894 19.338 1.33414 19.3601C1.36934 19.3822 1.40974 19.3944 1.45117 19.3954C1.80326 19.402 2.4944 19.2724 3.8493 18.6814" stroke="#2369D7" stroke-width="1.5" stroke-linecap="round" stroke-linejoin="round"/>
<path d="M19.8185 15.8451C18.1331 16.9605 16.2246 17.4719 13.8858 17.4719C8.47404 17.4719 4.08594 13.8992 4.08594 9.49145C4.08594 9.34536 4.09072 9.20036 4.10028 9.05647C4.37804 4.85338 8.65269 1.51367 13.8858 1.51367C19.2976 1.51367 23.6857 5.08633 23.6857 9.49343C23.6857 11.3097 22.7168 13.1622 21.4623 14.5033" stroke="#2369D7" stroke-width="1.5" stroke-linecap="round" stroke-linejoin="round"/>
<path d="M19.0023 16.3012C19.0023 16.3012 19.4802 17.6989 22.0505 17.5068C22.0882 17.5042 22.1248 17.4925 22.157 17.4725C22.1893 17.4525 22.2162 17.4248 22.2354 17.392C22.2547 17.3591 22.2657 17.322 22.2676 17.2839C22.2695 17.2457 22.2621 17.2077 22.2461 17.1731C21.956 16.5486 20.6741 15.5694 21.4637 14.5034" stroke="#2369D7" stroke-width="1.5" stroke-linecap="round" stroke-linejoin="round"/>
<path d="M2.19645 17.2192C2.09278 17.0876 1.96759 16.9 1.87631 16.7585C1.30575 15.8916 1.00095 14.8742 1 13.8334C1 11.7506 2.20818 9.93435 3.99927 8.97357" stroke="#2369D7" stroke-width="1.5" stroke-linecap="round" stroke-linejoin="round"/>
<path d="M11.7727 17.2877C10.6943 18.6597 8.969 19.5488 7.01684 19.5488C5.66168 19.5556 4.34226 19.1102 3.26379 18.282" stroke="#2369D7" stroke-width="1.5" stroke-linecap="round" stroke-linejoin="round"/>
<path d="M4.29144 15.3187C4.71708 15.3187 5.06213 14.9704 5.06213 14.5408C5.06213 14.1113 4.71708 13.763 4.29144 13.763C3.8658 13.763 3.52075 14.1113 3.52075 14.5408C3.52075 14.9704 3.8658 15.3187 4.29144 15.3187Z" stroke="#2369D7" stroke-width="1.5" stroke-linecap="round" stroke-linejoin="round"/>
<path d="M8.95337 6.54663C9.1907 6.50996 19.1132 6.54663 19.1132 6.54663" stroke="#2369D7" stroke-width="1.5" stroke-linecap="round" stroke-linejoin="round"/>
<path d="M8.95337 8.62033C9.1907 8.58346 19.1132 8.62033 19.1132 8.62033" stroke="#2369D7" stroke-width="1.5" stroke-linecap="round" stroke-linejoin="round"/>
<path d="M8.95337 10.6931C9.1907 10.655 19.1132 10.6931 19.1132 10.6931" stroke="#2369D7" stroke-width="1.5" stroke-linecap="round" stroke-linejoin="round"/>
<path d="M8.95337 12.7709C9.12224 12.7323 16.1973 12.7709 16.1973 12.7709" stroke="#2369D7" stroke-width="1.5" stroke-linecap="round" stroke-linejoin="round"/>
</svg>
