<svg width="53" height="31" viewBox="0 0 53 31" fill="none" xmlns="http://www.w3.org/2000/svg">
<path d="M16.8005 23.2583H32.3567L32.3744 25.5996L52 25.7262V19.6515H16.8005V23.2583Z" stroke="#2369D7" stroke-width="1.5" stroke-linejoin="round"/>
<path d="M7.62086 29.2065C9.64879 29.2065 11.2928 27.5633 11.2928 25.5363C11.2928 23.5094 9.64879 21.8662 7.62086 21.8662C5.59294 21.8662 3.94897 23.5094 3.94897 25.5363C3.94897 27.5633 5.59294 29.2065 7.62086 29.2065Z" stroke="#2369D7" stroke-width="1.5" stroke-miterlimit="10"/>
<path d="M46.1755 29.2697C48.2035 29.2697 49.8474 27.6265 49.8474 25.5996C49.8474 23.5726 48.2035 21.9294 46.1755 21.9294C44.1476 21.9294 42.5037 23.5726 42.5037 25.5996C42.5037 27.6265 44.1476 29.2697 46.1755 29.2697Z" fill="white" stroke="#2369D7" stroke-width="1.5" stroke-miterlimit="10"/>
<path d="M25.3472 29.2065C27.3751 29.2065 29.0191 27.5633 29.0191 25.5363C29.0191 23.5094 27.3751 21.8662 25.3472 21.8662C23.3193 21.8662 21.6753 23.5094 21.6753 25.5363C21.6753 27.5633 23.3193 29.2065 25.3472 29.2065Z" fill="white" stroke="#2369D7" stroke-width="1.5" stroke-miterlimit="10"/>
<path d="M11.2927 25.5363H21.6753" stroke="#2369D7" stroke-width="1.5" stroke-miterlimit="10"/>
<path d="M28.6177 4.01164L30.3903 5.92138C30.4191 5.95198 30.4554 5.9745 30.4956 5.98672C30.5359 5.99893 30.5786 6.0004 30.6195 5.99098L32.4035 5.57968C32.4471 5.56976 32.4873 5.5485 32.52 5.51805C32.5527 5.48759 32.5767 5.44904 32.5897 5.40629L33.1088 3.65349C33.1211 3.61243 33.1221 3.56885 33.1119 3.52724C33.1017 3.48563 33.0805 3.44751 33.0506 3.41683L31.2374 1.53873C31.2287 1.52986 31.2226 1.51878 31.2197 1.50669C31.2168 1.49459 31.2173 1.48194 31.221 1.47009C31.2248 1.45824 31.2317 1.44764 31.2411 1.43945C31.2505 1.43125 31.2619 1.42576 31.2741 1.42357C31.792 1.32992 33.8153 1.10085 35.046 2.93338C35.046 2.93338 35.9589 4.09644 35.5601 5.8948C35.5537 5.92238 35.5542 5.9511 35.5615 5.97846C35.5688 6.00581 35.5826 6.03097 35.6019 6.05173L43.8649 14.7841C44.0873 15.0153 44.2404 15.3043 44.3068 15.6181C44.3891 16.0282 44.3448 16.5837 43.8371 17.1634C43.6744 17.321 43.4818 17.4445 43.2707 17.5266C43.0596 17.6088 42.8341 17.6479 42.6077 17.6418C42.3812 17.6357 42.1582 17.5844 41.9519 17.4909C41.7455 17.3975 41.5599 17.2637 41.406 17.0976L33.1759 8.53477C33.1574 8.51569 33.1342 8.50187 33.1086 8.49476C33.083 8.48764 33.056 8.48747 33.0303 8.49427C32.4104 8.65167 31.7606 8.64924 31.1419 8.48722C30.5232 8.3252 29.9557 8.00887 29.4926 7.56788C29.0301 7.11978 28.6959 6.55627 28.5245 5.93569C28.3531 5.31511 28.3507 4.66001 28.5177 4.03822C28.5207 4.02829 28.5261 4.01929 28.5336 4.01207C28.5411 4.00486 28.5502 3.99967 28.5603 3.99701C28.5703 3.99434 28.5808 3.99429 28.5909 3.99685C28.6009 3.99941 28.6102 4.00451 28.6177 4.01164Z" stroke="#2369D7" stroke-width="1.5" stroke-miterlimit="10"/>
<path d="M33.8087 11.9326L33.4884 11.632C33.0623 11.232 32.3924 11.253 31.9922 11.679L28.3752 15.5288C27.9751 15.9548 27.9961 16.6243 28.4223 17.0243L28.7425 17.3249C29.1687 17.7249 29.8386 17.7039 30.2388 17.2779L33.8557 13.4281C34.2559 13.0022 34.2349 12.3326 33.8087 11.9326Z" stroke="#2369D7" stroke-width="1.5" stroke-miterlimit="10"/>
<path d="M33.6506 11.7822L39.8802 5.15063L40.136 4.87853L39.946 3.85216L41.9554 2.22339L42.6772 2.90046L41.1729 5.00382L40.136 4.87853" stroke="#2369D7" stroke-width="1.5" stroke-miterlimit="10"/>
<path d="M3.94892 25.5363H1.92305C1.67825 25.5363 1.44347 25.4391 1.27037 25.2661C1.09726 25.0931 1.00002 24.8584 1.00002 24.6137V17.3216C0.998324 16.8389 1.12975 16.3651 1.37987 15.9522L4.94919 10.1028C5.12665 9.81052 5.37644 9.56881 5.6745 9.40102C5.97256 9.23322 6.30883 9.14498 6.65092 9.14481H12.6994C13.0087 9.14481 13.3053 9.26761 13.524 9.4862C13.7427 9.70478 13.8655 10.0013 13.8655 10.3104V25.5363" stroke="#2369D7" stroke-width="1.5" stroke-miterlimit="10"/>
<path d="M4.39209 16.6141L7.43215 11.4772H11.2927V16.6141H4.39209Z" stroke="#2369D7" stroke-width="1.5" stroke-linejoin="round"/>
</svg>
