<svg width="21" height="17" viewBox="0 0 21 17" fill="none" xmlns="http://www.w3.org/2000/svg">
<path d="M12.1504 4.94351H8.23011C7.95234 4.94351 7.40747 4.39358 7.40747 3.72248V2.24971C7.40835 1.92615 7.53625 1.61609 7.76321 1.3873C7.99018 1.1585 8.29776 1.02957 8.61873 1.02869H12.5383C12.8594 1.02957 13.167 1.15848 13.3941 1.38726C13.6211 1.61603 13.7492 1.92609 13.7502 2.24971V3.72248C13.7502 4.39358 13.2047 4.94351 12.1504 4.94351Z" fill="white" stroke="#2369D7" stroke-width="1.5" stroke-linecap="round" stroke-linejoin="round"/>
<path d="M18.7536 3.05139H2.3388C1.5994 3.05139 1 3.65562 1 4.40098V14.7501C1 15.4955 1.5994 16.0997 2.3388 16.0997H18.7536C19.493 16.0997 20.0924 15.4955 20.0924 14.7501V4.40098C20.0924 3.65562 19.493 3.05139 18.7536 3.05139Z" fill="white" stroke="#2369D7" stroke-width="1.5" stroke-linecap="round" stroke-linejoin="round"/>
<path d="M1.12427 5.18518L10.5787 8.69479L19.9396 5.19595" fill="white"/>
<path d="M1.12427 5.18518L10.5787 8.69479L19.9396 5.19595" stroke="#2369D7" stroke-width="1.5" stroke-linecap="round" stroke-linejoin="round"/>
<path d="M12.0349 7.70398H9.05749C8.73591 7.70398 8.47522 7.96676 8.47522 8.29092V8.2916C8.47522 8.61576 8.73591 8.87854 9.05749 8.87854H12.0349C12.3565 8.87854 12.6172 8.61576 12.6172 8.2916V8.29092C12.6172 7.96676 12.3565 7.70398 12.0349 7.70398Z" fill="white" stroke="#2369D7" stroke-width="1.5" stroke-linecap="round" stroke-linejoin="round"/>
</svg>
