<svg width="53" height="33" viewBox="0 0 53 33" fill="none" xmlns="http://www.w3.org/2000/svg">
<path d="M17.0269 25.2123H32.483L32.5006 27.6431L52.0001 27.7745V21.4676H17.0269V25.2123Z" stroke="#2369D9" stroke-width="1.5" stroke-linejoin="round"/>
<path d="M7.9061 31.3878C9.92099 31.3878 11.5544 29.6818 11.5544 27.5774C11.5544 25.4729 9.92099 23.7669 7.9061 23.7669C5.89121 23.7669 4.25781 25.4729 4.25781 27.5774C4.25781 29.6818 5.89121 31.3878 7.9061 31.3878Z" stroke="#2369D9" stroke-width="1.5" stroke-miterlimit="10"/>
<path d="M46.2131 31.4535C48.228 31.4535 49.8614 29.7475 49.8614 27.6431C49.8614 25.5386 48.228 23.8326 46.2131 23.8326C44.1982 23.8326 42.5648 25.5386 42.5648 27.6431C42.5648 29.7475 44.1982 31.4535 46.2131 31.4535Z" fill="white" stroke="#2369D9" stroke-width="1.5" stroke-miterlimit="10"/>
<path d="M25.5186 31.3878C27.5335 31.3878 29.1669 29.6818 29.1669 27.5774C29.1669 25.4729 27.5335 23.7669 25.5186 23.7669C23.5038 23.7669 21.8704 25.4729 21.8704 27.5774C21.8704 29.6818 23.5038 31.3878 25.5186 31.3878Z" fill="white" stroke="#2369D9" stroke-width="1.5" stroke-miterlimit="10"/>
<path d="M11.5544 27.5774H21.8703" stroke="#2369D9" stroke-width="1.5" stroke-miterlimit="10"/>
<path d="M4.25784 27.5774H2.245C2.00177 27.5774 1.7685 27.4765 1.59651 27.2968C1.42452 27.1172 1.3279 26.8736 1.3279 26.6195V19.0499C1.32624 18.5483 1.45682 18.056 1.7053 17.6269L5.25169 11.5538C5.42831 11.2508 5.67663 11.0004 5.97275 10.8266C6.26888 10.6529 6.60283 10.5617 6.94247 10.5618H12.9521C13.2594 10.5618 13.5541 10.6893 13.7714 10.9162C13.9886 11.1432 14.1107 11.451 14.1107 11.7719V27.5774" stroke="#2369D9" stroke-width="1.5" stroke-miterlimit="10"/>
<path d="M4.69824 18.3141L7.71877 12.9821H11.5545V18.3141H4.69824Z" stroke="#2369D9" stroke-width="1.5" stroke-linejoin="round"/>
<path d="M27.1539 21.0077C29.1688 21.0077 30.8022 19.3017 30.8022 17.1972C30.8022 15.0928 29.1688 13.3868 27.1539 13.3868C25.139 13.3868 23.5056 15.0928 23.5056 17.1972C23.5056 19.3017 25.139 21.0077 27.1539 21.0077Z" stroke="#2369D9" stroke-width="1.5" stroke-miterlimit="10"/>
<path d="M44.7664 21.0077C46.7813 21.0077 48.4147 19.3017 48.4147 17.1972C48.4147 15.0928 46.7813 13.3868 44.7664 13.3868C42.7516 13.3868 41.1182 15.0928 41.1182 17.1972C41.1182 19.3017 42.7516 21.0077 44.7664 21.0077Z" fill="white" stroke="#2369D9" stroke-width="1.5" stroke-miterlimit="10"/>
<path d="M30.8022 17.1972L41.2439 17.2626" stroke="#2369D9" stroke-width="1.5" stroke-miterlimit="10"/>
<path d="M23.5056 17.1972H21.4928C21.2576 17.2054 21.029 17.1157 20.857 16.948C20.6851 16.7802 20.5839 16.548 20.5757 16.3024V9.22945C20.5751 8.75732 20.7063 8.29525 20.9531 7.89973L24.4995 2.22611C24.6857 1.93734 24.9377 1.70141 25.2328 1.5395C25.5279 1.37758 25.8569 1.29476 26.1903 1.29846H32.1999C32.839 1.29846 33.3585 1.80433 33.3585 2.42845V17.1972" stroke="#2369D9" stroke-width="1.5" stroke-miterlimit="10"/>
<path d="M23.946 9.51059L26.9666 4.18912H30.8023V9.51059H23.946Z" stroke="#2369D9" stroke-width="1.5" stroke-linejoin="round"/>
</svg>
