<svg width="53" height="24" viewBox="0 0 53 24" fill="none" xmlns="http://www.w3.org/2000/svg">
<path d="M16.8358 16.2147H32.4267L32.4444 18.5701L52.1139 18.6974V1.24219H16.8358V16.2147Z" stroke="#2369D9" stroke-width="1.5" stroke-linejoin="round"/>
<path d="M7.63565 22.1986C9.6681 22.1986 11.3157 20.5455 11.3157 18.5064C11.3157 16.4673 9.6681 14.8142 7.63565 14.8142C5.6032 14.8142 3.95557 16.4673 3.95557 18.5064C3.95557 20.5455 5.6032 22.1986 7.63565 22.1986Z" stroke="#2369D9" stroke-width="1.5" stroke-miterlimit="10"/>
<path d="M46.2765 22.2623C48.309 22.2623 49.9566 20.6092 49.9566 18.5701C49.9566 16.5309 48.309 14.8779 46.2765 14.8779C44.2441 14.8779 42.5964 16.5309 42.5964 18.5701C42.5964 20.6092 44.2441 22.2623 46.2765 22.2623Z" fill="white" stroke="#2369D9" stroke-width="1.5" stroke-miterlimit="10"/>
<path d="M25.4015 22.1986C27.434 22.1986 29.0816 20.5455 29.0816 18.5064C29.0816 16.4673 27.434 14.8142 25.4015 14.8142C23.3691 14.8142 21.7214 16.4673 21.7214 18.5064C21.7214 20.5455 23.3691 22.1986 25.4015 22.1986Z" fill="white" stroke="#2369D9" stroke-width="1.5" stroke-miterlimit="10"/>
<path d="M11.3157 18.5064H21.7214" stroke="#2369D9" stroke-width="1.5" stroke-miterlimit="10"/>
<path d="M3.95551 18.5064H1.92511C1.67976 18.5064 1.44446 18.4086 1.27097 18.2346C1.09748 18.0605 1.00001 17.8244 1.00001 17.5783V10.2422C0.998541 9.75631 1.13024 9.27932 1.38071 8.8634L4.95801 2.98007C5.13618 2.68647 5.38666 2.44382 5.68537 2.27547C5.98407 2.10712 6.32094 2.01874 6.66354 2.01883H12.7255C13.0353 2.01883 13.3324 2.14219 13.5515 2.36182C13.7707 2.58145 13.894 2.87938 13.8943 3.19015V18.5064" stroke="#2369D9" stroke-width="1.5" stroke-miterlimit="10"/>
<path d="M4.39966 9.53056L7.44651 4.36276H11.3157V9.53056H4.39966Z" stroke="#2369D9" stroke-width="1.5" stroke-linejoin="round"/>
</svg>
