<svg width="22" height="17" viewBox="0 0 22 17" fill="none" xmlns="http://www.w3.org/2000/svg">
<path d="M7.94708 8.43233C9.92555 8.43233 11.5294 6.82363 11.5294 4.83921C11.5294 2.85479 9.92555 1.24609 7.94708 1.24609C5.96861 1.24609 4.36475 2.85479 4.36475 4.83921C4.36475 6.82363 5.96861 8.43233 7.94708 8.43233Z" stroke="#2369D7" stroke-width="1.5" stroke-linecap="round" stroke-linejoin="round"/>
<path d="M1 14.9958C1 14.9958 1.11041 9.84033 6.1735 9.84982L9.87887 9.84223C10.7958 9.83453 11.692 10.1159 12.441 10.6465C13.4297 11.3572 14.4845 12.6589 14.5767 14.9958H1Z" stroke="#2369D7" stroke-width="1.5" stroke-linecap="round" stroke-linejoin="round"/>
<path d="M15.3091 10.1225C17.0071 10.1225 18.3835 8.74192 18.3835 7.03884C18.3835 5.33576 17.0071 3.95514 15.3091 3.95514C13.6111 3.95514 12.2346 5.33576 12.2346 7.03884C12.2346 8.74192 13.6111 10.1225 15.3091 10.1225Z" fill="white" stroke="#2369D7" stroke-width="1.5" stroke-linecap="round" stroke-linejoin="round"/>
<path d="M9.34692 15.7552C9.34692 15.7552 9.44156 11.3306 13.7879 11.3388L16.9678 11.3319C17.7549 11.3254 18.5241 11.5669 19.1671 12.0223C20.0151 12.6323 20.9204 13.7492 20.9999 15.7559L9.34692 15.7552Z" fill="white" stroke="#2369D7" stroke-width="1.5" stroke-linecap="round" stroke-linejoin="round"/>
</svg>
