<svg width="23" height="23" viewBox="0 0 23 23" fill="none" xmlns="http://www.w3.org/2000/svg">
<path d="M5.8322 22.9187C4.46438 22.8565 3.72134 22.6288 3.22712 22.4361C2.57226 22.1811 2.10539 21.8776 1.6139 21.3868C1.12242 20.896 0.81823 20.4291 0.564627 19.7742C0.371861 19.28 0.144233 18.537 0.0820281 17.1692C0.0136714 15.6906 0 15.247 0 11.501C0 7.75507 0.0150385 7.31212 0.0813445 5.8322C0.143549 4.46438 0.372544 3.72271 0.563943 3.22712C0.818914 2.57226 1.1231 2.10539 1.61322 1.61322C2.10402 1.12242 2.5709 0.817547 3.22644 0.563943C3.72066 0.371177 4.4637 0.143549 5.83152 0.0813445C7.31076 0.0136714 7.75508 0 11.4997 0C15.2456 0 15.6886 0.0150385 17.1685 0.0813445C18.5363 0.143549 19.278 0.372544 19.7736 0.563943C20.4284 0.817547 20.8953 1.12242 21.3868 1.61322C21.8783 2.10402 22.1811 2.57158 22.4361 3.22644C22.6288 3.72066 22.8565 4.4637 22.9187 5.83152C22.9863 7.31144 23 7.75439 23 11.5003C23 15.2449 22.9863 15.6892 22.9187 17.1692C22.8565 18.537 22.6275 19.28 22.4361 19.7742C22.1811 20.4291 21.8776 20.896 21.3868 21.3868C20.896 21.8776 20.4284 22.1811 19.7736 22.4361C19.2793 22.6288 18.5363 22.8565 17.1685 22.9187C15.6899 22.9863 15.2456 23 11.4997 23C7.75508 23 7.31076 22.987 5.8322 22.9187" fill="url(#paint0_radial_916_34)"/>
<path d="M5.8322 22.9187C4.46438 22.8565 3.72134 22.6288 3.22712 22.4361C2.57226 22.1811 2.10539 21.8776 1.6139 21.3868C1.12242 20.896 0.81823 20.4291 0.564627 19.7742C0.371861 19.28 0.144233 18.537 0.0820281 17.1692C0.0136714 15.6906 0 15.247 0 11.501C0 7.75507 0.0150385 7.31212 0.0813445 5.8322C0.143549 4.46438 0.372544 3.72271 0.563943 3.22712C0.818914 2.57226 1.1231 2.10539 1.61322 1.61322C2.10402 1.12242 2.5709 0.817547 3.22644 0.563943C3.72066 0.371177 4.4637 0.143549 5.83152 0.0813445C7.31076 0.0136714 7.75508 0 11.4997 0C15.2456 0 15.6886 0.0150385 17.1685 0.0813445C18.5363 0.143549 19.278 0.372544 19.7736 0.563943C20.4284 0.817547 20.8953 1.12242 21.3868 1.61322C21.8783 2.10402 22.1811 2.57158 22.4361 3.22644C22.6288 3.72066 22.8565 4.4637 22.9187 5.83152C22.9863 7.31144 23 7.75439 23 11.5003C23 15.2449 22.9863 15.6892 22.9187 17.1692C22.8565 18.537 22.6275 19.28 22.4361 19.7742C22.1811 20.4291 21.8776 20.896 21.3868 21.3868C20.896 21.8776 20.4284 22.1811 19.7736 22.4361C19.2793 22.6288 18.5363 22.8565 17.1685 22.9187C15.6899 22.9863 15.2456 23 11.4997 23C7.75508 23 7.31076 22.987 5.8322 22.9187" fill="url(#paint1_radial_916_34)"/>
<path d="M8.67619 11.549C8.67619 9.97603 9.95097 8.70056 11.5239 8.70056C13.0969 8.70056 14.3724 9.97603 14.3724 11.549C14.3724 13.1219 13.0969 14.3974 11.5239 14.3974C9.95097 14.3974 8.67619 13.1219 8.67619 11.549V11.549ZM7.13638 11.549C7.13638 13.9722 9.10068 15.9365 11.5239 15.9365C13.9472 15.9365 15.9115 13.9722 15.9115 11.549C15.9115 9.12574 13.9472 7.16144 11.5239 7.16144C9.10068 7.16144 7.13645 9.12561 7.13645 11.549H7.13638ZM15.0599 6.98748C15.0598 7.19027 15.1199 7.38854 15.2325 7.5572C15.3451 7.72586 15.5052 7.85735 15.6925 7.93503C15.8798 8.01271 16.086 8.0331 16.2849 7.99361C16.4838 7.95413 16.6665 7.85655 16.81 7.71321C16.9534 7.56987 17.0512 7.38721 17.0908 7.18832C17.1305 6.98944 17.1102 6.78327 17.0327 6.59588C16.9552 6.40849 16.8238 6.2483 16.6552 6.13556C16.4867 6.02283 16.2884 5.96261 16.0857 5.96253H16.0852C15.8134 5.96266 15.5527 6.07067 15.3605 6.26285C15.1682 6.45502 15.0601 6.71565 15.0599 6.98748V6.98748ZM8.07191 18.5042C7.23885 18.4662 6.78605 18.3275 6.48515 18.2102C6.08622 18.0549 5.80158 17.8699 5.50231 17.5711C5.20305 17.2722 5.0178 16.9879 4.86318 16.5889C4.74588 16.2882 4.60711 15.8352 4.56924 15.0022C4.52782 14.1015 4.51955 13.8309 4.51955 11.5491C4.51955 9.26731 4.5285 8.99751 4.56924 8.09609C4.60718 7.26302 4.74697 6.81098 4.86318 6.50932C5.01848 6.11039 5.20346 5.82575 5.50231 5.52649C5.80117 5.22722 6.08553 5.04197 6.48515 4.88735C6.78592 4.77005 7.23885 4.63129 8.07191 4.59342C8.97258 4.55199 9.24314 4.54372 11.5239 4.54372C13.8047 4.54372 14.0756 4.55254 14.977 4.59355C15.81 4.63149 16.2621 4.77128 16.5637 4.88749C16.9627 5.04211 17.2473 5.22777 17.5466 5.52662C17.8458 5.82548 18.0304 6.11053 18.1857 6.50946C18.303 6.81023 18.4418 7.26316 18.4796 8.09622C18.5211 8.99764 18.5293 9.26745 18.5293 11.5493C18.5293 13.8311 18.5211 14.1009 18.4796 15.0023C18.4417 15.8354 18.3023 16.2882 18.1857 16.5891C18.0304 16.988 17.8454 17.2726 17.5466 17.5712C17.2477 17.8698 16.9627 18.0551 16.5637 18.2104C16.263 18.3277 15.81 18.4664 14.977 18.5043C14.0763 18.5457 13.8057 18.554 11.5239 18.554C9.24211 18.554 8.97231 18.5457 8.07191 18.5043V18.5042ZM8.00116 3.05614C7.09154 3.09756 6.46997 3.2418 5.92715 3.45302C5.36533 3.67115 4.88908 3.96378 4.41353 4.43859C3.93797 4.91339 3.64608 5.3897 3.42796 5.95221C3.21674 6.49537 3.0725 7.1166 3.03108 8.02622C2.98897 8.93728 2.97933 9.22855 2.97933 11.549C2.97933 13.8694 2.98897 14.1607 3.03108 15.0718C3.0725 15.9814 3.21674 16.6026 3.42796 17.1458C3.64608 17.7076 3.93804 18.1848 4.41353 18.6594C4.88902 19.134 5.36464 19.4262 5.92715 19.645C6.471 19.8562 7.09154 20.0004 8.00116 20.0418C8.9127 20.0833 9.20349 20.0936 11.5239 20.0936C13.8444 20.0936 14.1356 20.0839 15.0467 20.0418C15.9564 20.0004 16.5775 19.8562 17.1207 19.645C17.6825 19.4262 18.1588 19.1342 18.6343 18.6594C19.1099 18.1846 19.4012 17.7076 19.6199 17.1458C19.8311 16.6026 19.976 15.9814 20.0168 15.0718C20.0582 14.16 20.0678 13.8694 20.0678 11.549C20.0678 9.22855 20.0582 8.93728 20.0168 8.02622C19.9754 7.11653 19.8311 6.49503 19.6199 5.95221C19.4012 5.39039 19.1091 4.91415 18.6343 4.43859C18.1595 3.96303 17.6825 3.67115 17.1214 3.45302C16.5775 3.2418 15.9563 3.09688 15.0474 3.05614C14.1362 3.01451 13.8451 3.00439 11.525 3.00439C9.20486 3.00439 8.91304 3.01403 8.00151 3.05614" fill="white"/>
<defs>
<radialGradient id="paint0_radial_916_34" cx="0" cy="0" r="1" gradientUnits="userSpaceOnUse" gradientTransform="translate(1.48854 22.4961) scale(29.2015)">
<stop offset="0.09" stop-color="#FA8F21"/>
<stop offset="0.78" stop-color="#D82D7E"/>
</radialGradient>
<radialGradient id="paint1_radial_916_34" cx="0" cy="0" r="1" gradientUnits="userSpaceOnUse" gradientTransform="translate(15.9313 21.7576) scale(25.6976)">
<stop offset="0.64" stop-color="#8C3AAA" stop-opacity="0"/>
<stop offset="1" stop-color="#8C3AAA"/>
</radialGradient>
</defs>
</svg>
