<svg width="24" height="24" viewBox="0 0 24 24" fill="none" xmlns="http://www.w3.org/2000/svg">
<path d="M23.1199 13.96C23.24 13.32 23.2799 12.68 23.2799 12C23.2799 5.76003 18.24 0.720055 12 0.720055C11.32 0.720055 10.6801 0.760007 10.04 0.879966C9.03998 0.320024 7.91999 0 6.72 0C2.99997 0 0 2.99997 0 6.72C0 7.91999 0.320024 9.08003 0.879966 10.04C0.760007 10.6801 0.720055 11.32 0.720055 12C0.720055 18.24 5.76003 23.2799 12 23.2799C12.68 23.2799 13.32 23.24 13.96 23.12C14.96 23.68 16.08 24 17.28 24C21 24 24 21 24 17.28C24 16.08 23.68 14.96 23.12 13.96H23.1199ZM17.28 22.28C16.4 22.28 15.56 22.04 14.7999 21.64L14.28 21.32L13.68 21.44C13.16 21.5199 12.6 21.6 12 21.6C6.72 21.6 2.44003 17.32 2.44003 12.04C2.44003 11.48 2.47999 10.92 2.60005 10.3599L2.72 9.76003L2.35993 9.19999C1.91994 8.43998 1.71998 7.59997 1.71998 6.72C1.71998 3.96005 3.96005 1.71998 6.72 1.71998C7.59997 1.71998 8.43998 1.96 9.20009 2.36003L9.71998 2.68005L10.32 2.55999C10.88 2.48009 11.44 2.39998 12 2.39998C17.28 2.39998 21.56 6.68005 21.56 11.96C21.56 12.52 21.52 13.08 21.4 13.6401L21.28 14.24L21.6 14.76C22.04 15.52 22.24 16.3601 22.24 17.24C22.28 20.04 20.0401 22.28 17.28 22.28V22.28Z" fill="#00A9E8"/>
<path d="M14.04 10.92L11.52 10.36C10.5601 10.12 9.47998 9.84002 9.47998 8.92001C9.47998 7.99999 10.24 7.36004 11.64 7.36004C14.48 7.36004 14.24 9.32003 15.64 9.32003C16.36 9.32003 17 8.92 17 8.1599C17 6.39997 14.2 5.08002 11.8001 5.08002C9.24006 5.08002 6.52005 6.11999 6.52005 9.08002C6.52005 10.48 6.99999 12 9.76005 12.7199L13.2 13.5999C14.24 13.84 14.56 14.44 14.56 14.96C14.56 15.84 13.64 16.7999 12.0799 16.7999C9.00004 16.7999 9.44002 14.36 7.80005 14.36C7.08 14.36 6.4801 14.8799 6.4801 15.6001C6.4801 17.04 8.24003 19 12.08 19C15.76 19 17.6 17.16 17.6 14.7599C17.56 13.16 16.84 11.56 14.04 10.92V10.92Z" fill="#00A9E8"/>
</svg>
