<svg width="24" height="24" viewBox="0 0 24 24" fill="none" xmlns="http://www.w3.org/2000/svg">
<path d="M12 24C18.6274 24 24 18.6274 24 12C24 5.37259 18.6274 0 12 0C5.37259 0 0 5.37259 0 12C0 18.6274 5.37259 24 12 24Z" fill="#34AADF"/>
<path d="M4.99426 11.896C4.99426 11.896 10.9943 9.43355 13.0751 8.56648C13.8729 8.21968 16.578 7.10982 16.578 7.10982C16.578 7.10982 17.8266 6.6243 17.7226 7.80347C17.6878 8.28904 17.4104 9.98843 17.133 11.8266C16.7168 14.4278 16.2659 17.2717 16.2659 17.2717C16.2659 17.2717 16.1965 18.0694 15.607 18.2081C15.0174 18.3468 14.0462 17.7226 13.8729 17.5838C13.7341 17.4798 11.2717 15.9191 10.37 15.1561C10.1272 14.948 9.84974 14.5318 10.4046 14.0463C11.6532 12.9017 13.1445 11.4798 14.0462 10.5781C14.4624 10.1619 14.8786 9.19077 13.1445 10.3699C10.6821 12.0694 8.25437 13.6648 8.25437 13.6648C8.25437 13.6648 7.69944 14.0116 6.65899 13.6994C5.6185 13.3873 4.40462 12.9711 4.40462 12.9711C4.40462 12.9711 3.5723 12.4509 4.99426 11.896V11.896Z" fill="white"/>
</svg>
