<svg width="23" height="24" viewBox="0 0 23 24" fill="none" xmlns="http://www.w3.org/2000/svg">
<path d="M20.4038 2.34092C19.8011 1.79061 17.3657 0.0409966 11.941 0.0172266C11.941 0.0172266 5.5438 -0.364533 2.42528 2.46625C0.689329 4.18453 0.078653 6.69874 0.0142373 9.81584C-0.0501784 12.9329 -0.133519 18.7746 5.55654 20.3585H5.56199L5.55836 22.7755C5.55836 22.7755 5.52196 23.754 6.17303 23.9535C6.96058 24.1956 7.42277 23.4519 8.17465 22.6502C8.58735 22.2101 9.15726 21.5636 9.5867 21.0695C13.4782 21.3936 16.4712 20.6528 16.8111 20.5433C17.5968 20.2912 22.043 19.7275 22.7661 13.8863C23.5125 7.86563 22.4051 4.05739 20.4038 2.34092V2.34092Z" fill="white"/>
<path d="M19.1384 3.55717C18.6289 3.09906 16.4297 1.73157 11.8409 1.71176C11.8409 1.71176 6.40703 1.35845 3.76926 3.72284C2.30116 5.15732 1.80658 7.29049 1.75235 9.89366C1.69813 12.4968 1.41717 17.4698 6.2287 18.7926C6.2287 18.7926 6.20978 22.4845 6.2076 22.809C6.2076 23.0359 6.24399 23.1911 6.375 23.2232C6.46926 23.2459 6.61047 23.1976 6.73056 23.0791C7.49991 22.3145 9.963 19.3739 9.963 19.3739C13.2679 19.5875 15.8973 18.9417 16.18 18.8502C16.8468 18.6381 20.4529 18.3316 21.0633 13.453C21.694 8.42424 20.8314 4.99165 19.1384 3.55717V3.55717Z" fill="#7360F2"/>
<path d="M14.1741 9.67968C14.1144 8.48902 13.5032 7.86368 12.3406 7.80365" stroke="white" stroke-linecap="round" stroke-linejoin="round"/>
<path d="M15.7481 10.2019C15.7723 9.09268 15.4403 8.16589 14.752 7.42158C14.0605 6.67463 13.1034 6.26333 11.8751 6.17438" stroke="white" stroke-linecap="round" stroke-linejoin="round"/>
<path d="M17.3595 10.8257C17.3447 8.90083 16.7635 7.38483 15.6159 6.27773C14.4684 5.17063 13.0411 4.61119 11.3343 4.59943" stroke="white" stroke-linecap="round" stroke-linejoin="round"/>
<path d="M12.4013 13.7461C12.4013 13.7461 12.8326 13.7821 13.0648 13.4991L13.5175 12.9354C13.7359 12.656 14.2628 12.4777 14.7789 12.7622C15.1656 12.9805 15.5411 13.2177 15.9038 13.4731C16.2463 13.7224 16.9476 14.3015 16.9497 14.3015C17.2838 14.5806 17.361 14.9904 17.1335 15.4226C17.1335 15.4252 17.1317 15.4295 17.1317 15.4316C16.8812 15.8614 16.5631 16.249 16.1895 16.5798C16.1851 16.582 16.1851 16.5841 16.1811 16.5863C15.8565 16.8547 15.5376 17.0073 15.2243 17.044C15.1782 17.052 15.1314 17.0549 15.0846 17.0527C14.9465 17.054 14.8091 17.0331 14.6777 16.9907L14.6675 16.976C14.185 16.8413 13.3792 16.5042 12.0374 15.7716C11.2609 15.3527 10.5217 14.8694 9.82762 14.3271C9.47973 14.0553 9.14789 13.7641 8.83372 13.4548L8.80024 13.4216L8.76676 13.3885L8.73328 13.3554C8.722 13.3446 8.71108 13.3334 8.6998 13.3222C8.38721 13.0113 8.09292 12.6829 7.81836 12.3387C7.27035 11.6519 6.78203 10.9204 6.35863 10.1522C5.6184 8.82395 5.27776 8.0273 5.14165 7.54902L5.12673 7.53894C5.08406 7.40895 5.06304 7.27296 5.06449 7.13629C5.06195 7.09002 5.06475 7.04362 5.07286 6.99799C5.11193 6.6885 5.26635 6.37265 5.53615 6.05043C5.53833 6.04647 5.54051 6.04647 5.5427 6.04215C5.8769 5.67239 6.26855 5.35775 6.70291 5.11008C6.70509 5.11008 6.70946 5.10792 6.71201 5.10792C7.14872 4.88283 7.56288 4.95918 7.84456 5.288C7.84674 5.29016 8.43085 5.98417 8.6816 6.32307C8.93971 6.6824 9.17948 7.0543 9.4 7.43737C9.68751 7.94771 9.50736 8.47029 9.22495 8.68566L8.6554 9.13368C8.36789 9.36346 8.40574 9.79024 8.40574 9.79024C8.40574 9.79024 9.24933 12.9498 12.4013 13.7461V13.7461Z" fill="white"/>
</svg>
